<svg width="619" height="556" viewBox="0 0 619 556" fill="none" xmlns="http://www.w3.org/2000/svg">
<g clip-path="url(#clip0_46_998)">
<path d="M137.284 410.151C101.839 444.085 233.739 566.708 252.923 549.879C272.107 533.051 171.95 377.014 137.284 410.151Z" fill="#CCDEFF"/>
<path d="M152.212 427.152C167.089 440.06 235.244 514.556 252.923 549.879" stroke="#8CB3FF" stroke-width="2" stroke-miterlimit="10" stroke-linecap="round"/>
<path d="M205.387 301.251C272.366 283 297.051 546.114 263.233 553.765C229.415 561.416 166.95 311.73 205.387 301.251Z" fill="#000099"/>
<path d="M220.679 345.213C226.128 361.07 256.677 472.78 263.233 553.765" stroke="#8CB3FF" stroke-width="2" stroke-miterlimit="10" stroke-linecap="round"/>
</g>
<g clip-path="url(#clip1_46_998)">
<path d="M454.519 269.619C469.949 269.619 486.954 294.529 488.061 303.184C491.193 327.592 481.471 343.933 482.024 353.765C483.27 375.697 491.4 395.31 485.38 407.271C449.865 478.071 328.807 462.405 314.379 486.76C310.677 493.685 300.038 515.53 300.038 515.53C294.416 509.904 280.179 471.354 280.179 456.312C280.179 441.269 301.042 399.897 341.971 370.383C363.612 354.786 403.365 269.619 454.519 269.619Z" fill="#8CB3FF"/>
<path d="M287.635 553.769C292.15 538.189 336.211 404.9 446.388 343.292" stroke="#000099" stroke-width="2" stroke-miterlimit="10" stroke-linecap="round"/>
<path d="M408.348 369.223C409.213 362.732 413.641 349.247 408.348 329.306" stroke="#000099" stroke-width="2" stroke-miterlimit="10" stroke-linecap="round"/>
<path d="M381.62 393.787C382.537 383.262 381.62 368.306 377.849 359.807" stroke="#000099" stroke-width="2" stroke-miterlimit="10" stroke-linecap="round"/>
<path d="M356.918 422.245C375.275 419.699 393.95 420.668 411.946 425.101" stroke="#000099" stroke-width="2" stroke-miterlimit="10" stroke-linecap="round"/>
</g>
<g clip-path="url(#clip2_46_998)">
<path d="M492.873 29.833H0.465454V353.893H492.873V29.833Z" stroke="black" stroke-miterlimit="10"/>
<path d="M0.465454 47.0605H492.873" stroke="black" stroke-miterlimit="10"/>
<path d="M184.304 75.9277H36.3022V223.99H184.304V75.9277Z" stroke="black" stroke-miterlimit="10"/>
<path d="M212.694 88.9648H438.885" stroke="black" stroke-miterlimit="10"/>
<path d="M212.694 111.313H438.885" stroke="black" stroke-miterlimit="10"/>
<path d="M212.694 133.663H438.885" stroke="black" stroke-miterlimit="10"/>
<path d="M212.694 156.012H438.885" stroke="black" stroke-miterlimit="10"/>
<path opacity="0.44" d="M110.303 115.039L69.9983 184.88H150.608L110.303 115.039Z" fill="#80DAC3"/>
<path d="M11.1699 42.8701C13.4833 42.8701 15.3586 40.994 15.3586 38.6797C15.3586 36.3654 13.4833 34.4893 11.1699 34.4893C8.85656 34.4893 6.9812 36.3654 6.9812 38.6797C6.9812 40.994 8.85656 42.8701 11.1699 42.8701Z" fill="#8CB3FF"/>
<path d="M25.5978 42.8701C27.9111 42.8701 29.7865 40.994 29.7865 38.6797C29.7865 36.3654 27.9111 34.4893 25.5978 34.4893C23.2844 34.4893 21.4091 36.3654 21.4091 38.6797C21.4091 40.994 23.2844 42.8701 25.5978 42.8701Z" fill="#CCDEFF"/>
<path d="M40.0256 42.8701C42.339 42.8701 44.2144 40.994 44.2144 38.6797C44.2144 36.3654 42.339 34.4893 40.0256 34.4893C37.7123 34.4893 35.8369 36.3654 35.8369 38.6797C35.8369 40.994 37.7123 42.8701 40.0256 42.8701Z" fill="#B8E0D6"/>
</g>
<g clip-path="url(#clip3_46_998)">
<path d="M486.916 232.809C484.561 244.048 467.452 383.469 473.046 416.75C478.641 450.032 569.852 519.826 573.846 521.045C578.5 517.628 585.351 506.425 585.351 506.425C585.351 506.425 518.471 428.912 517.223 425.801C515.976 422.691 531.847 243.117 531.847 243.117L486.916 232.809Z" fill="#000099"/>
<path d="M595.841 258.212L527.602 536.652H504.611L527.909 246.181L595.841 258.212Z" fill="#00CC99"/>
<path d="M547.373 98.7891C556.793 98.7891 605.931 100.381 614.811 117.683C623.691 134.985 615.323 214.957 609.803 218.058C606.825 219.725 606.015 218.105 605.149 221.494C604.284 224.884 595.841 258.212 595.841 258.212C590.479 258.361 512.309 246.581 486.934 232.809C487.083 228.981 488.312 219.027 488.312 218.263C484.942 219.641 480.865 219.93 479.739 218.263C469.844 203.261 484.607 125.049 495.191 109.312C499.705 102.56 532.256 98.8356 547.373 98.7891Z" fill="#80DAC3"/>
<path d="M579.728 220.265C582.037 220.265 601.91 234.233 600.207 241.096C601.603 235.584 605.996 218.552 605.996 218.552C604.107 218.85 581.376 220.265 579.728 220.265Z" fill="#000099"/>
<path d="M559.539 107.914C559.539 110.95 535.607 110.95 535.607 107.914V77.1846H559.539V107.914Z" fill="#F8CDBA"/>
<path d="M545.8 84.4573C547.661 84.4573 559.539 89.7093 559.539 92.6333V77.1846C556.579 77.1846 545.8 84.4573 545.8 84.4573Z" fill="#000099"/>
<path d="M542.533 86.7021C555.39 86.7021 565.813 76.275 565.813 63.4126C565.813 50.5501 555.39 40.123 542.533 40.123C529.675 40.123 519.253 50.5501 519.253 63.4126C519.253 76.275 529.675 86.7021 542.533 86.7021Z" fill="#F8CDBA"/>
<path d="M534.658 29.3672C522.706 29.3672 515.25 36.8727 515.25 46.4921C515.25 54.4912 517.195 59.0168 519.476 60.1622C520.919 52.396 524.056 48.8015 526.653 47.2557C528.663 48.8015 532.126 52.545 536.743 53.6996C541.36 54.8543 553.377 54.6309 563.085 61.6894C566.25 58.8027 569.424 55.0499 569.424 50.6267C569.424 46.2034 567.469 40.6534 555.964 37.4501C548.378 35.3362 547.326 29.3672 534.658 29.3672Z" fill="#000099"/>
<path d="M520.779 70.3313C523.031 70.3313 524.856 69.3807 524.856 68.2081C524.856 67.0355 523.031 66.085 520.779 66.085C518.527 66.085 516.702 67.0355 516.702 68.2081C516.702 69.3807 518.527 70.3313 520.779 70.3313Z" fill="#FA9E9F"/>
<path d="M546.423 70.3313C548.675 70.3313 550.5 69.3807 550.5 68.2081C550.5 67.0355 548.675 66.085 546.423 66.085C544.172 66.085 542.346 67.0355 542.346 68.2081C542.346 69.3807 544.172 70.3313 546.423 70.3313Z" fill="#FA9E9F"/>
<path d="M530.739 63.8223C529.976 64.9118 526.085 69.484 530.19 71.3278" stroke="#000099" stroke-miterlimit="10" stroke-linecap="round"/>
<path d="M538.409 76.6539C539.628 76.6539 541.527 75.1267 542.523 73.7578" stroke="#000099" stroke-miterlimit="10" stroke-linecap="round"/>
<path d="M564.053 71.4767C567.025 71.4767 569.433 69.0669 569.433 66.0943C569.433 63.1217 567.025 60.7119 564.053 60.7119C561.082 60.7119 558.673 63.1217 558.673 66.0943C558.673 69.0669 561.082 71.4767 564.053 71.4767Z" fill="#F8CDBA"/>
<path d="M580.268 144.613C579.849 149.754 578.211 175.157 578.825 178.5C571.016 181.219 499.472 215.152 487.139 218.849" stroke="#000099" stroke-miterlimit="10" stroke-linecap="round"/>
<path d="M497.211 136.596C495.572 142.351 490.025 168.471 493.925 180.605" stroke="#000099" stroke-miterlimit="10" stroke-linecap="round"/>
<path d="M515.464 206.985C519.187 209.602 554.885 225.405 604.218 219.445" stroke="#000099" stroke-miterlimit="10" stroke-linecap="round"/>
<path d="M512.057 180.605C514.45 180.986 506.649 174.757 502.228 177.075C497.806 179.394 491.849 189.889 493.068 192.328C493.233 192.77 493.494 193.168 493.832 193.495C494.171 193.822 494.579 194.068 495.025 194.217C495.472 194.365 495.946 194.411 496.413 194.352C496.88 194.293 497.327 194.13 497.723 193.874C498.923 193.092 507.859 179.934 512.057 180.605Z" fill="#F8CDBA"/>
<path d="M584.559 507.617C585.835 508.548 597.144 516.203 597.237 521.027C597.33 525.85 586.728 541.839 584.559 542.295C582.391 542.752 580.892 540.945 580.892 537.714C580.892 534.482 584.932 528.821 584.392 526.306C583.852 523.792 578.63 519.192 575.949 519.108" fill="#000099"/>
<path d="M525.424 536.652C525.424 538.869 526.709 552.781 524.13 554.075C521.552 555.37 493.217 556.133 491.933 554.848C490.648 553.563 489.866 550.853 491.002 550.08C492.138 549.308 503.103 547.11 504.583 546.086C506.063 545.061 508.129 539.567 507.375 536.652" fill="#000099"/>
</g>
<g clip-path="url(#clip4_46_998)">
<path d="M457.967 58.9332L444.005 46.5947H458.246L457.967 58.9332Z" fill="#CCDEFF"/>
<path d="M383.203 47.9912L452.68 47.9912C463.311 47.9912 471.929 39.3694 471.929 28.7338V19.757C471.929 9.12142 463.311 0.499599 452.68 0.499599L383.203 0.499599C372.572 0.499599 363.953 9.12142 363.953 19.757V28.7338C363.953 39.3694 372.572 47.9912 383.203 47.9912Z" fill="#CCDEFF"/>
<path d="M432.369 28.4365C434.683 28.4365 436.558 26.5604 436.558 24.2461C436.558 21.9318 434.683 20.0557 432.369 20.0557C430.056 20.0557 428.18 21.9318 428.18 24.2461C428.18 26.5604 430.056 28.4365 432.369 28.4365Z" fill="white"/>
<path d="M417.941 28.4365C420.255 28.4365 422.13 26.5604 422.13 24.2461C422.13 21.9318 420.255 20.0557 417.941 20.0557C415.628 20.0557 413.753 21.9318 413.753 24.2461C413.753 26.5604 415.628 28.4365 417.941 28.4365Z" fill="white"/>
<path d="M403.514 28.4365C405.827 28.4365 407.702 26.5604 407.702 24.2461C407.702 21.9318 405.827 20.0557 403.514 20.0557C401.2 20.0557 399.325 21.9318 399.325 24.2461C399.325 26.5604 401.2 28.4365 403.514 28.4365Z" fill="white"/>
</g>
<defs>
<clipPath id="clip0_46_998">
<rect width="147.071" height="255.151" fill="white" transform="translate(131.247 300.349)"/>
</clipPath>
<clipPath id="clip1_46_998">
<rect width="208.505" height="285.881" fill="white" transform="translate(280.179 269.619)"/>
</clipPath>
<clipPath id="clip2_46_998">
<rect width="493.338" height="324.992" fill="white" transform="translate(0 29.3672)"/>
</clipPath>
<clipPath id="clip3_46_998">
<rect width="146.763" height="526.142" fill="white" transform="translate(471.929 29.3672)"/>
</clipPath>
<clipPath id="clip4_46_998">
<rect width="107.976" height="58.4333" fill="white" transform="translate(363.953 0.5)"/>
</clipPath>
</defs>
</svg>
