<svg width="1440" height="678" viewBox="0 0 1440 678" fill="none" xmlns="http://www.w3.org/2000/svg">
<path d="M1269 130C1262.11 481.909 869 546 0 565V678H247C1131 678 1325.66 549.383 1291.67 143.197L1327 164L1338.64 16L1233 114L1269 130Z" fill="#F5F9FF"/>
<g clip-path="url(#clip0_41_2133)">
<path d="M1168.24 134L1160.48 127.243H1168.4L1168.24 134Z" fill="#8CB3FF"/>
<path d="M1126.7 128.008H1165.3C1171.21 128.008 1176 123.286 1176 117.462V112.546C1176 106.722 1171.21 102 1165.3 102H1126.7C1120.79 102 1116 106.722 1116 112.546V117.462C1116 123.286 1120.79 128.008 1126.7 128.008Z" fill="#8CB3FF"/>
<path d="M1154.02 117.299C1155.3 117.299 1156.34 116.271 1156.34 115.004C1156.34 113.737 1155.3 112.709 1154.02 112.709C1152.73 112.709 1151.69 113.737 1151.69 115.004C1151.69 116.271 1152.73 117.299 1154.02 117.299Z" fill="white"/>
<path d="M1146 117.299C1147.29 117.299 1148.33 116.271 1148.33 115.004C1148.33 113.737 1147.29 112.709 1146 112.709C1144.71 112.709 1143.67 113.737 1143.67 115.004C1143.67 116.271 1144.71 117.299 1146 117.299Z" fill="white"/>
<path d="M1137.98 117.299C1139.27 117.299 1140.31 116.271 1140.31 115.004C1140.31 113.737 1139.27 112.709 1137.98 112.709C1136.7 112.709 1135.66 113.737 1135.66 115.004C1135.66 116.271 1136.7 117.299 1137.98 117.299Z" fill="white"/>
</g>
<g clip-path="url(#clip1_41_2133)">
<path d="M1340.98 352.819L1314.02 358.259C1312.85 358.494 1312.1 359.637 1312.34 360.811L1315.65 377.225C1315.88 378.399 1317.02 379.16 1318.19 378.925L1345.15 373.485C1346.31 373.25 1347.07 372.107 1346.83 370.933L1343.52 354.519C1343.28 353.345 1342.14 352.584 1340.98 352.819Z" fill="#CCDEFF"/>
<path d="M1313.02 359.137L1329.58 365.872" stroke="#8CB3FF" stroke-width="0.82" stroke-linecap="round" stroke-linejoin="round"/>
<path d="M1343.09 352.393L1329.58 365.872" stroke="#8CB3FF" stroke-width="0.82" stroke-linecap="round" stroke-linejoin="round"/>
<path d="M1343.99 356.886C1346.46 356.388 1348.05 353.974 1347.55 351.493C1347.05 349.011 1344.64 347.403 1342.18 347.9C1339.72 348.397 1338.13 350.812 1338.63 353.293C1339.13 355.774 1341.53 357.383 1343.99 356.886Z" fill="#FF7676"/>
<path d="M1344.9 354.868L1344.25 354.999L1343.38 350.691L1342.18 351.432L1342.06 350.845L1343.77 349.776L1343.87 349.756L1344.9 354.868Z" fill="white"/>
</g>
<path d="M1181.97 187H1094.03C1091.25 187 1089 189.271 1089 192.072V235.734C1089 238.535 1091.25 240.806 1094.03 240.806H1181.97C1184.75 240.806 1187 238.535 1187 235.734V192.072C1187 189.271 1184.75 187 1181.97 187Z" fill="#8CB3FF"/>
<path d="M1145.7 187H1094.04C1092.7 187.003 1091.42 187.539 1090.48 188.49C1089.53 189.441 1089 190.731 1089 192.076V235.73C1089 237.075 1089.53 238.364 1090.48 239.316C1091.42 240.267 1092.7 240.803 1094.04 240.806H1145.7V187Z" fill="#CCDEFF"/>
<path d="M1186.96 191.423C1186.8 190.202 1186.2 189.08 1185.29 188.266C1184.37 187.453 1183.19 187.003 1181.96 187H1094.04C1092.81 187.003 1091.63 187.453 1090.72 188.266C1089.8 189.08 1089.2 190.202 1089.04 191.423H1186.96Z" fill="#00CC99"/>
<path d="M1100.15 239.428V249L1113.81 239.428H1100.15Z" fill="#CCDEFF"/>
<path d="M1097.85 209.552H1136.85" stroke="white" stroke-width="4" stroke-miterlimit="10" stroke-linecap="round"/>
<path d="M1097.85 216.078H1136.85" stroke="white" stroke-width="4" stroke-miterlimit="10" stroke-linecap="round"/>
<path d="M1097.85 222.605H1136.85" stroke="white" stroke-width="4" stroke-miterlimit="10" stroke-linecap="round"/>
<path d="M1097.85 229.131H1136.85" stroke="white" stroke-width="4" stroke-miterlimit="10" stroke-linecap="round"/>
<path d="M1133.9 204.476C1136.08 204.476 1137.86 202.69 1137.86 200.488C1137.86 198.285 1136.08 196.499 1133.9 196.499C1131.71 196.499 1129.94 198.285 1129.94 200.488C1129.94 202.69 1131.71 204.476 1133.9 204.476Z" fill="white"/>
<g clip-path="url(#clip2_41_2133)">
<path d="M1050.7 349.538L1034.8 344.713L1024.29 379.367L1040.19 384.192L1050.7 349.538Z" fill="#000099"/>
<path d="M1070.53 566.902C1071.26 568.391 1075.18 577.367 1077.18 578.216C1080.8 579.737 1098.71 569.329 1099.15 568.037C1099.59 566.745 1099.22 564.655 1098.18 564.52C1097.14 564.385 1089.03 566.539 1087.69 566.338C1086.36 566.137 1083.15 563.156 1082.69 560.923" fill="#000099"/>
<path d="M834.868 438.639C837.502 499.349 857.37 511.26 876.583 510.427C925.253 508.315 986.877 466.534 990.387 464.872C989.54 471.306 989.469 633.485 989.51 634.419C991.253 635.661 1004.23 636.235 1008.53 634.911C1009.49 630.927 1035.32 436.914 1035.1 431.844C1034.88 426.773 1031.6 419.189 1020.41 418.559C1015.68 418.291 950.03 418.414 950.03 418.414" fill="#000099"/>
<path d="M998.187 388.424C1013.88 409.145 1086.26 555.395 1085.83 558.906C1085.39 562.417 1070.56 570.46 1067.27 568.61C1053.31 560.824 963.753 423.709 960.412 421.726C957.071 419.742 952.238 420.774 949.363 421.484C941.275 409.276 957.516 393.658 998.187 388.424Z" fill="#00CC99"/>
<path d="M926.911 271.625C948.924 270.67 956.158 291.239 958.321 299.03C965.235 323.904 953.166 420.091 951.403 422.804C936.438 445.766 845.459 451.696 836.159 442.435C826.859 433.175 866.763 274.235 926.911 271.625Z" fill="#80DAC3"/>
<path d="M993.67 631.918C993.448 633.561 991.659 643.201 992.842 645.02C994.967 648.307 1015.65 649.741 1016.74 648.916C1017.83 648.092 1018.68 646.151 1017.91 645.486C1017.14 644.821 1009.2 642.034 1008.2 641.109C1007.21 640.184 1006.22 635.924 1007.11 633.813" fill="#000099"/>
<path d="M923.808 276.164C923.295 278.101 939.042 282.261 939.556 280.335L944.743 260.737L929.006 256.565L923.808 276.164Z" fill="#F8CDBA"/>
<path d="M938.78 265.58C937.242 265.173 926.268 266.922 925.629 269.338L929.006 256.565C931.456 257.213 938.78 265.58 938.78 265.58Z" fill="#000099"/>
<path d="M947.583 268.306C960.181 267.76 969.951 257.104 969.404 244.505C968.858 231.907 958.202 222.137 945.603 222.684C933.005 223.231 923.235 233.887 923.782 246.485C924.328 259.083 934.985 268.853 947.583 268.306Z" fill="#F8CDBA"/>
<path d="M969.867 256.525C970.162 255.413 968.667 254.053 966.528 253.486C964.39 252.919 962.417 253.361 962.123 254.472C961.828 255.583 963.323 256.944 965.462 257.511C967.6 258.078 969.573 257.636 969.867 256.525Z" fill="#FA9E9F"/>
<path d="M945.558 250.086C945.852 248.975 944.357 247.614 942.219 247.048C940.08 246.481 938.107 246.922 937.813 248.033C937.518 249.145 939.013 250.505 941.152 251.072C943.29 251.639 945.263 251.198 945.558 250.086Z" fill="#FA9E9F"/>
<path d="M957.675 248.833C958.122 250.052 960.696 255.37 956.323 256.089" stroke="#000099" stroke-width="1.2" stroke-miterlimit="10" stroke-linecap="round"/>
<path d="M947.171 259.077C946.03 258.732 944.597 256.857 944 255.295" stroke="#000099" stroke-width="1.2" stroke-miterlimit="10" stroke-linecap="round"/>
<path d="M952.198 215.268C946.15 214.776 928.465 210.339 924.34 206.902C922.505 207.973 915.493 214.844 909.931 223.973L918.742 232.094L907.859 227.633C905.247 232.363 903.535 237.535 902.81 242.889C905.887 250.201 914.666 252.884 916.304 253.016C926.874 253.886 930.201 237.376 935.409 235.122C944.253 231.28 955.232 239.781 968.53 238.641C971.225 232.476 966.678 216.453 952.198 215.268Z" fill="#000099"/>
<path d="M925.747 247.898C928.659 247.771 930.917 245.308 930.791 242.396C930.664 239.484 928.201 237.226 925.289 237.352C922.377 237.479 920.119 239.942 920.245 242.854C920.371 245.766 922.835 248.024 925.747 247.898Z" fill="#F8CDBA"/>
<path d="M906.42 326.085C905.601 333.171 904.842 399.784 913.847 405.87C933.132 418.899 1018.68 398.224 1031.55 392.811C1032.77 388.118 1030.71 373.463 1030.71 373.463C1025.66 373.479 962.095 375.629 958.098 370.981C954.1 366.334 951.944 327.015 952.358 322.548" fill="#80DAC3"/>
<path d="M1040.41 393.97C1047.16 393.677 1052.39 387.968 1052.1 381.219C1051.81 374.47 1046.1 369.236 1039.35 369.529C1032.6 369.821 1027.36 375.53 1027.66 382.28C1027.95 389.029 1033.66 394.263 1040.41 393.97Z" fill="#F8CDBA"/>
<path d="M958.088 371.016C954.044 366.336 951.934 327.05 952.348 322.583" stroke="#000099" stroke-linecap="round" stroke-linejoin="round"/>
<path d="M953.761 409.14C936.197 410.882 920.764 410.571 913.847 405.87C909.902 403.214 907.831 388.965 906.797 373.185" stroke="#000099" stroke-linecap="round" stroke-linejoin="round"/>
</g>
<path d="M1334.9 529H1298.1C1291.42 529 1286 534.397 1286 541.055V558.945C1286 565.603 1291.42 571 1298.1 571H1334.9C1341.58 571 1347 565.603 1347 558.945V541.055C1347 534.397 1341.58 529 1334.9 529Z" fill="#CCDEFF"/>
<path d="M1307.8 535.761H1298.62V564.239H1307.8V535.761Z" fill="#8CB3FF"/>
<path d="M1321.09 554.696H1311.92V564.239H1321.09V554.696Z" fill="#8CB3FF"/>
<path d="M1334.38 546.67H1325.2V564.239H1334.38V546.67Z" fill="#8CB3FF"/>
<g clip-path="url(#clip3_41_2133)">
<path d="M1036.51 112.23L1001.57 116.293C995.733 116.972 991.553 122.279 992.236 128.148L993.119 135.739C993.801 141.607 999.088 145.814 1004.93 145.135L1039.86 141.072C1045.7 140.393 1049.88 135.085 1049.2 129.216L1048.32 121.626C1047.64 115.757 1042.35 111.55 1036.51 112.23Z" fill="#8CB3FF"/>
<path d="M1005.55 126.406L1012.02 131.558L1007.77 136.958L1001.3 131.807C1000.58 131.239 1000.12 130.41 1000.02 129.502C999.912 128.594 1000.17 127.682 1000.73 126.966C1001.3 126.249 1002.12 125.788 1003.03 125.683C1003.93 125.578 1004.84 125.838 1005.55 126.406L1005.55 126.406Z" fill="#FF7676"/>
<path d="M1012.9 130.458L1007.78 136.957L1002.4 132.677L1007.52 126.177C1008.08 125.461 1008.91 125 1009.81 124.894C1010.72 124.789 1011.62 125.049 1012.34 125.617C1013.05 126.185 1013.51 127.014 1013.62 127.922C1013.72 128.829 1013.46 129.742 1012.9 130.458L1012.9 130.458Z" fill="#FF7676"/>
<path d="M1017.89 125.269L1019.76 125.052L1020.53 131.666L1023.54 131.315L1023.73 132.957L1018.85 133.525L1017.89 125.269Z" fill="white"/>
<path d="M1023.95 124.564L1025.83 124.346L1026.79 132.603L1024.91 132.821L1023.95 124.564Z" fill="white"/>
<path d="M1032.85 131.896L1030.24 129.504L1030.55 132.164L1028.68 132.381L1027.72 124.124L1029.59 123.907L1029.89 126.436L1031.38 123.7L1033.72 123.428L1031.09 127.875L1035.42 131.598L1032.85 131.896Z" fill="white"/>
<path d="M1041.31 129.249L1041.5 130.891L1036.12 131.516L1035.16 123.259L1040.43 122.646L1040.62 124.288L1037.22 124.683L1037.42 126.384L1040.4 126.038L1040.6 127.728L1037.62 128.074L1037.8 129.656L1041.31 129.249Z" fill="white"/>
</g>
<g clip-path="url(#clip4_41_2133)">
<path d="M1295.41 436.916L1276.44 431.218C1272.73 430.105 1268.83 432.207 1267.71 435.914L1262.02 454.886C1260.9 458.593 1263 462.5 1266.71 463.613L1285.68 469.311C1289.39 470.425 1293.3 468.322 1294.41 464.615L1300.11 445.643C1301.22 441.937 1299.12 438.029 1295.41 436.916Z" fill="#8CB3FF"/>
<path d="M1297.72 447.148C1301.58 448.305 1305.64 446.12 1306.79 442.268C1307.95 438.415 1305.77 434.354 1301.91 433.197C1298.06 432.04 1294 434.225 1292.84 438.078C1291.69 441.93 1293.87 445.991 1297.72 447.148Z" fill="#FF7676"/>
<path d="M1301.53 442.034C1301.21 443.091 1300.07 443.54 1298.77 443.149C1297.93 442.897 1297.37 442.386 1297.12 441.618L1298.22 441.138C1298.41 441.538 1298.65 441.815 1299.06 441.938C1299.63 442.108 1300.07 441.92 1300.2 441.499C1300.33 441.068 1300.06 440.644 1299.5 440.478L1298.96 440.317L1299.26 439.34L1299.49 439.41C1300.15 439.606 1300.6 439.37 1300.67 438.984C1300.74 438.68 1300.51 438.408 1300.13 438.292C1299.77 438.185 1299.33 438.236 1299.02 438.447L1298.59 437.391C1299.19 437.062 1299.88 436.899 1300.67 437.136C1301.71 437.449 1302.38 438.332 1302.04 439.336C1301.9 439.809 1301.48 440.146 1300.91 440.246C1301.48 440.682 1301.73 441.344 1301.53 442.034Z" fill="white"/>
</g>
<path d="M1088 53.9626L1079.05 32.3443C1078.81 31.7484 1078.16 31.4426 1077.57 31.6374L1074.12 32.7656L1073.37 30.3887C1072.77 28.4777 1071.49 26.9201 1069.78 26.0021C1068.08 25.0964 1066.06 24.9179 1064.24 25.5144C1060.44 26.7584 1058.35 30.9701 1059.59 34.9016L1060.33 37.2785L1056.89 38.4067C1056.29 38.6015 1055.94 39.2322 1056.08 39.8628L1061.11 62.7604C1061.41 64.1274 1062.26 65.31 1063.44 66.0097C1064.61 66.7094 1066.03 66.8681 1067.32 66.4462L1085.04 60.6434C1086.33 60.2222 1087.39 59.2542 1087.95 57.9882C1088.51 56.7191 1088.53 55.2521 1088 53.9626ZM1071.82 33.5178L1062.63 36.5263L1061.88 34.1494C1061.06 31.5277 1062.45 28.7209 1064.99 27.8913C1066.21 27.4926 1067.55 27.6084 1068.68 28.212C1069.82 28.8245 1070.68 29.8644 1071.08 31.1408L1071.82 33.5178Z" fill="#8CB3FF"/>
<path d="M1082.46 27.7518C1085.19 26.9926 1086.79 24.1205 1086.03 21.337C1085.27 18.5534 1082.44 16.9124 1079.71 17.6717C1076.97 18.431 1075.37 21.3031 1076.13 24.0866C1076.89 26.8702 1079.73 28.5111 1082.46 27.7518Z" fill="#FF7676"/>
<path d="M1082.74 24.5289L1082.1 24.7064L1080.94 20.4668L1079.79 21.2938L1079.63 20.7161L1081.27 19.5262L1081.37 19.4985L1082.74 24.5289Z" fill="white"/>
<defs>
<clipPath id="clip0_41_2133">
<rect width="60" height="32" fill="white" transform="translate(1116 102)"/>
</clipPath>
<clipPath id="clip1_41_2133">
<rect width="36.36" height="25.6659" fill="white" transform="translate(1311 354.192) rotate(-11.4088)"/>
</clipPath>
<clipPath id="clip2_41_2133">
<rect width="258.666" height="445.716" fill="white" transform="translate(825 211.212) rotate(-2.4844)"/>
</clipPath>
<clipPath id="clip3_41_2133">
<rect width="56.4599" height="29.0365" fill="white" transform="translate(991 117.522) rotate(-6.63353)"/>
</clipPath>
<clipPath id="clip4_41_2133">
<rect width="39.2567" height="39.2567" fill="white" transform="translate(1271.29 424) rotate(16.717)"/>
</clipPath>
</defs>
</svg>
