<svg width="548" height="543" viewBox="0 0 548 543" fill="none" xmlns="http://www.w3.org/2000/svg">
<g clip-path="url(#clip0_41_2647)">
<path d="M178.428 263.15C177.64 265.527 169.992 276.655 167.123 281.577C164.254 286.498 159.439 300.977 163.663 303.353C167.887 305.73 174.968 303.99 177.209 296.367C179.45 288.745 187.061 271.565 189.721 267.799C192.381 264.033 178.428 263.15 178.428 263.15Z" fill="#F8CDBA"/>
<path d="M465.526 36.9956C469.232 33.2817 499.244 0 499.539 0C502.335 0.7142 504.17 2.1426 502.138 5.19418C501.35 6.37586 496.596 11.9206 491.054 18.1796C492.711 19.6527 493.899 21.6274 494.456 23.8361C495.012 26.0447 494.912 28.3805 494.167 30.5267C493.422 32.6729 492.069 34.5257 490.292 35.8339C488.515 37.142 486.399 37.8422 484.232 37.8396C483.372 37.8303 482.516 37.7126 481.683 37.489L476.917 43.4493L469.836 40.4107L470.784 39.307L465.526 36.9956Z" fill="#F8CDBA"/>
<path d="M418.828 422.313C418.741 423.975 415.909 437.623 417.165 439.337C419.443 442.453 439.135 442.194 440.108 441.272C441.081 440.35 441.733 438.35 440.945 437.727C440.157 437.103 432.423 434.987 431.413 434.156C430.404 433.325 429.135 429.13 429.8 426.949" fill="#000099"/>
<path d="M282.354 226.453C273.733 232.842 187.529 501.55 188.933 505.809C190.337 510.069 200.164 512.432 203.711 510.069C207.257 507.705 274.214 379.838 277.81 376.046C281.405 372.254 333.953 314.495 341.133 291.757C348.312 269.02 282.354 226.453 282.354 226.453Z" fill="#000099"/>
<path d="M294.361 211.182C288.905 214.195 273.056 230.661 273.056 248.178C273.056 297.665 316.158 307.651 331.527 307.366C346.896 307.08 410.404 309.872 434.443 301.34C433.408 310.937 425.342 397.524 417.805 422.741C419.628 426.299 429.111 429.442 430.81 427.936C444.455 416.249 484.712 292.783 483.937 284.109C482.188 264.527 304.348 213.728 294.361 211.182Z" fill="#00CC99"/>
<path d="M346.699 125.102C347.475 128.66 328.929 133.477 328.079 129.647L322.833 105.779L341.453 101.286L346.699 125.102Z" fill="#F8CDBA"/>
<path d="M325.973 120.038C325.505 117.908 328.498 109.467 332.315 109.844C327.586 109.273 324.187 104.247 322.833 105.78L325.973 120.038Z" fill="#000099"/>
<path d="M336.564 110.221C322.852 110.221 311.737 98.4999 311.737 84.0418C311.737 69.5838 322.852 57.8632 336.564 57.8632C350.275 57.8632 361.391 69.5838 361.391 84.0418C361.391 98.4999 350.275 110.221 336.564 110.221Z" fill="#F8CDBA"/>
<path d="M357.737 82.4729C357.468 81.2503 359.055 79.8181 361.281 79.274C363.507 78.7299 365.53 79.2799 365.799 80.5025C366.067 81.7252 364.48 83.1574 362.254 83.7015C360.028 84.2456 358.005 83.6956 357.737 82.4729Z" fill="#FA9E9F"/>
<path d="M332.382 88.6658C332.113 87.4432 333.7 86.011 335.927 85.4668C338.153 84.9227 340.175 85.4728 340.444 86.6954C340.713 87.918 339.126 89.3503 336.9 89.8944C334.674 90.4385 332.651 89.8884 332.382 88.6658Z" fill="#FA9E9F"/>
<path d="M350.911 79.3021C351.921 80.2501 356.834 84.0678 353.177 87.0025" stroke="#000099" stroke-width="0.69" stroke-miterlimit="10" stroke-linecap="round"/>
<path d="M346.268 94.56C345.037 94.8067 342.832 93.716 341.527 92.5343" stroke="#000099" stroke-width="0.69" stroke-miterlimit="10" stroke-linecap="round"/>
<path d="M324.434 80.1332C324.372 74.2249 344.014 60.5901 353.472 64.8364C349.098 60.5925 343.424 58.1446 337.483 57.9376C331.541 57.7307 325.727 59.7784 321.096 63.7087C316.465 67.6389 313.326 73.1908 312.248 79.355C311.17 85.5193 312.225 91.8867 315.222 97.3C317.882 94.7938 324.434 85.704 324.434 80.1332Z" fill="#000099"/>
<path d="M319.286 92.6512C316.266 92.6512 313.818 90.0699 313.818 86.8857C313.818 83.7014 316.266 81.1201 319.286 81.1201C322.306 81.1201 324.754 83.7014 324.754 86.8857C324.754 90.0699 322.306 92.6512 319.286 92.6512Z" fill="#F8CDBA"/>
<path d="M467.521 35.0607C464.885 37.5019 412.596 92.0149 403.766 94.2743C374.014 101.884 277.736 132.283 244.904 160.111C210.619 182.368 174.216 260.787 175.534 263.566C176.852 266.345 191.396 272.967 194.364 271.578C197.331 270.188 237.971 210.871 244.251 207.092C250.532 203.313 299.41 177.875 299.41 177.875C297.107 183.796 290.494 208.884 291.491 212.364C292.489 215.844 313.781 230.946 352.598 234.66C356.563 232.219 368.127 161.513 368.127 161.513C376.39 157.617 431.069 126.933 443.113 111C447.78 104.819 483.087 47.6046 483.087 44.7738C483.087 41.943 467.521 35.0607 467.521 35.0607Z" fill="#80DAC3"/>
<path d="M342.303 175.122C345.739 173.641 367.918 161.448 367.918 161.448" stroke="#000099" stroke-width="0.55" stroke-miterlimit="10" stroke-linecap="round"/>
<path d="M322.18 121.817C319.84 124.816 303.264 161.02 299.41 178.316" stroke="#000099" stroke-width="0.55" stroke-miterlimit="10" stroke-linecap="round"/>
<path d="M190.792 505.55C189.45 506.848 186.199 512.601 186.039 514.743C185.238 525.002 195.767 540.987 197.467 541C202.393 541 204.942 538.247 204.942 535.027C204.942 531.806 201.248 527.872 201.248 525.716C201.248 523.561 201.703 510.679 202.048 508.77" fill="#000099"/>
</g>
<path d="M0 541H266L278 443H546V317" stroke="#000099" stroke-width="4" stroke-linecap="round" stroke-linejoin="round"/>
<defs>
<clipPath id="clip0_41_2647">
<rect width="341" height="541" fill="white" transform="matrix(-1 0 0 1 503 0)"/>
</clipPath>
</defs>
</svg>
