<svg width="50" height="50" fill="none" xmlns="http://www.w3.org/2000/svg"><path d="M13.282 16.162h-5.89a1.465 1.465 0 00.059 2.93h5.86a1.465 1.465 0 00-.03-2.93zm0 5.859h-5.89a1.465 1.465 0 10.059 2.93h5.86a1.465 1.465 0 00-.03-2.93z" fill="#009"/><path d="M44.14 13.38V5.908a4.4 4.4 0 00-4.394-4.394 4.4 4.4 0 00-4.377 4.012c-2.874 1.462-9.452 4.777-16.103 4.777H7.324C3.286 10.303 0 13.588 0 17.627v5.86c0 4.038 3.286 7.324 7.324 7.324h1.563v13.28a4.4 4.4 0 004.394 4.395 4.4 4.4 0 004.395-4.394V36.67h1.465a4.4 4.4 0 004.394-4.395v-1.047c5.018.935 9.552 3.205 11.834 4.36a4.4 4.4 0 004.377 4.012 4.4 4.4 0 004.395-4.395v-7.471C47.48 27.052 50 24.093 50 20.556s-2.52-6.497-5.86-7.177zM14.747 44.092c0 .808-.657 1.465-1.465 1.465a1.466 1.466 0 01-1.465-1.465V30.81h2.93v13.28zM7.324 27.88a4.4 4.4 0 01-4.394-4.395v-5.859a4.4 4.4 0 014.394-4.395h10.352V27.88H7.324zm13.281 4.394c0 .808-.657 1.465-1.464 1.465h-1.465v-2.93c1.45 0 2.006-.015 2.93.045v1.42zm14.747.03c-3.28-1.607-8.859-4.05-14.746-4.385V13.194c5.928-.334 11.491-2.78 14.746-4.382v23.493zm5.859 2.9c0 .808-.657 1.465-1.465 1.465a1.467 1.467 0 01-1.465-1.465V5.908c0-.808.657-1.465 1.465-1.465s1.465.657 1.465 1.465v29.297zM44.14 24.7v-8.287a4.402 4.402 0 012.93 4.144 4.402 4.402 0 01-2.93 4.143z" fill="#009"/></svg>