<svg width="50" height="50" fill="none" xmlns="http://www.w3.org/2000/svg"><path d="M45.605 1.563H4.395A4.4 4.4 0 000 5.957v29.297a4.4 4.4 0 004.395 4.394h4.492v7.325a1.465 1.465 0 002.5 1.035l8.36-8.36h25.858A4.4 4.4 0 0050 35.254V5.957a4.4 4.4 0 00-4.395-4.394zm1.465 33.69c0 .809-.657 1.466-1.465 1.466H19.142c-.389 0-.761.154-1.036.429l-6.289 6.288v-5.252c0-.81-.655-1.465-1.464-1.465H4.395a1.467 1.467 0 01-1.465-1.465V5.957c0-.808.657-1.465 1.465-1.465h41.21c.808 0 1.465.657 1.465 1.465v29.297z" fill="#009"/><path d="M25 7.422c-7.27 0-13.184 5.914-13.184 13.183 0 7.27 5.915 13.184 13.184 13.184 7.27 0 13.184-5.914 13.184-13.184 0-7.269-5.915-13.183-13.184-13.183zm0 23.437c-5.654 0-10.254-4.6-10.254-10.254S19.346 10.352 25 10.352s10.254 4.6 10.254 10.253c0 5.654-4.6 10.254-10.254 10.254z" fill="#009"/><path d="M30.18 23.713a1.465 1.465 0 00-2.073 0A4.365 4.365 0 0125 24.998a4.365 4.365 0 01-3.107-1.285 1.465 1.465 0 00-2.072 2.072 7.275 7.275 0 005.18 2.142 7.275 7.275 0 005.178-2.142c.572-.573.572-1.5 0-2.072zm-9.575-4.573a1.465 1.465 0 100-2.929 1.465 1.465 0 000 2.93zm8.79 0a1.465 1.465 0 100-2.93 1.465 1.465 0 000 2.93z" fill="#009"/></svg>