<svg width="50" height="50" fill="none" xmlns="http://www.w3.org/2000/svg"><g clip-path="url(#clip0_41_2906)" fill="#009"><path d="M42.578 26.563a4.38 4.38 0 00-1.619.309 4.403 4.403 0 00-4.24-3.24 4.377 4.377 0 00-2.93 1.122 4.377 4.377 0 00-2.93-1.121c-.513 0-1.006.088-1.464.25v-4.645A4.4 4.4 0 0025 14.844a4.4 4.4 0 00-4.394 4.394v14.294l-.681-.681a4.392 4.392 0 00-6.215 0 4.392 4.392 0 000 6.214l10.506 10.506c.275.275.647.429 1.036.429h17.326c.606 0 1.15-.373 1.367-.938a45.058 45.058 0 003.028-16.27v-1.835a4.4 4.4 0 00-4.395-4.395zm1.465 6.229A42.13 42.13 0 0141.56 47.07h-15.7L15.782 36.994a1.464 1.464 0 112.071-2.071l3.182 3.181a1.465 1.465 0 002.5-1.036v-17.83c0-.807.657-1.465 1.465-1.465s1.465.658 1.465 1.465v11.719a1.465 1.465 0 002.93 0v-2.93c0-.807.657-1.465 1.465-1.465.807 0 1.464.658 1.464 1.465v2.93a1.465 1.465 0 002.93 0v-2.93c0-.807.657-1.465 1.465-1.465s1.465.658 1.465 1.465v2.93a1.465 1.465 0 002.93 0c0-.808.657-1.465 1.464-1.465.808 0 1.465.657 1.465 1.465v1.835zM14.579 5.175a1.464 1.464 0 00-1.19-1.004l-3.292-.467-1.466-2.9a1.465 1.465 0 00-2.614 0l-1.466 2.9-3.292.467a1.465 1.465 0 00-.804 2.511l2.36 2.247-.555 3.164a1.465 1.465 0 002.112 1.557l2.952-1.516 2.953 1.516a1.465 1.465 0 002.111-1.557l-.556-3.164 2.361-2.247c.407-.387.557-.972.386-1.507zM9.244 7.348a1.465 1.465 0 00-.433 1.315l.182 1.035-1-.513a1.465 1.465 0 00-1.338 0l-1 .513.182-1.035a1.465 1.465 0 00-.433-1.315l-.737-.702 1.052-.149a1.465 1.465 0 001.102-.79l.503-.995.503.996a1.47 1.47 0 001.102.79l1.052.148-.737.702zm23.01-2.173a1.464 1.464 0 00-1.189-1.004l-3.292-.467-1.466-2.9a1.465 1.465 0 00-2.614 0l-1.466 2.9-3.292.467a1.465 1.465 0 00-.804 2.511l2.36 2.247-.555 3.164a1.465 1.465 0 002.111 1.557L25 12.134l2.952 1.516a1.465 1.465 0 002.112-1.557l-.556-3.164 2.361-2.247c.407-.387.556-.972.385-1.507zM26.92 7.348a1.465 1.465 0 00-.433 1.315l.181 1.035-1-.513a1.465 1.465 0 00-1.337 0l-1 .513.182-1.035a1.465 1.465 0 00-.433-1.315l-.737-.702 1.052-.149a1.465 1.465 0 001.102-.79L25 4.713l.503.996a1.47 1.47 0 001.102.79l1.052.148-.737.702zm23.01-2.173a1.464 1.464 0 00-1.19-1.004l-3.291-.467-1.466-2.9a1.465 1.465 0 00-2.615 0l-1.466 2.9-3.292.467a1.465 1.465 0 00-.804 2.511l2.361 2.247-.555 3.164a1.465 1.465 0 002.111 1.557l2.953-1.516 2.952 1.516a1.465 1.465 0 002.112-1.557l-.556-3.164 2.36-2.247c.408-.387.557-.973.386-1.507zm-5.334 2.173a1.465 1.465 0 00-.433 1.315l.181 1.035-1-.513a1.465 1.465 0 00-1.337 0l-1 .513.182-1.035a1.465 1.465 0 00-.433-1.315l-.738-.702 1.053-.149a1.465 1.465 0 001.101-.79l.504-.995.503.996c.216.427.627.722 1.101.79l1.053.148-.737.702z"/></g><defs><clipPath id="clip0_41_2906"><path fill="#fff" d="M0 0h50v50H0z"/></clipPath></defs></svg>