<svg width="472" height="439" fill="none" xmlns="http://www.w3.org/2000/svg"><path fill-rule="evenodd" clip-rule="evenodd" d="M213.867 45.458c39.81 3.617 82.943-12.19 116.614 9.327 33.593 21.468 41.911 64.84 57.085 101.676 15.345 37.248 32.329 73.306 31.586 113.577-.907 49.244 6.063 114.225-36.251 139.519-43.903 26.245-95.878-23.95-146.663-30.175-37.118-4.55-74.324 11.632-109.437-1.218-41.042-15.02-84.398-36.654-102.559-76.363-18.405-40.245 1.708-85.49 8.546-129.205 7.697-49.207-6.953-113.14 33.842-141.784 41.361-29.04 96.886 10.071 147.237 14.646z" fill="#F5F9FF"/><path d="M10.423 220.693c19.53-6.851 36.172 19.934 40.655 27.052 19.602 31.268 3.057 58.537-5.63 61.665-15.145 5.46-31.585-19.102-36.237-26.879-7.94-13.176-5.472-31.622-6.353-37.244-.88-5.622 2.357-22.767 7.565-24.594z" fill="#009"/><path d="M60.917 187.489c12.314-1.759 19.45 8.415 21.655 14.229 3.57 9.486 11.26 14.582 11.26 26.702 0 28.284-17.24 50.946-24.982 50.946-17.065 0-23.399-17.919-23.399-25.473 0-12.823 3.396-28.288 2.992-32.148-.852-7.929-5.609-31.679 12.474-34.256z" fill="#8CB3FF"/><path d="M20.76 242.011c4.291 5.6 26.322 57.224 30.801 114.874M34.959 240.122c-.466 1.759-4.331 12.329-7.45 15.919M15.05 273.218c2.964 1.964 11.485 3.878 20.147 3.929m10.828 8.426c-.801 1.002-3.115 3.921-6.637 5.337m26.758-68.862c5.071 33.993-7.016 120.331-7.45 134.837m19.718-131.971c-1.335 2.047-6.785 6.905-10.925 8.415M54.59 250.39c2.663 1.225 7.67 3.377 12.491 3.377" stroke="#80DAC3" stroke-width="2" stroke-linecap="round" stroke-linejoin="round"/><g clip-path="url(#clip0_41_3537)"><path d="M271.898 77.406H96.91v270.698h174.988V77.406z" fill="#fff"/><path d="M125.934 156.476c5.782 0 10.47-4.682 10.47-10.459 0-5.776-4.688-10.459-10.47-10.459-5.782 0-10.47 4.683-10.47 10.459 0 5.777 4.688 10.459 10.47 10.459zm0 35.995c5.782 0 10.47-4.683 10.47-10.459 0-5.777-4.688-10.459-10.47-10.459-5.782 0-10.47 4.682-10.47 10.459 0 5.776 4.688 10.459 10.47 10.459z" fill="#80DAC3"/><path d="M125.934 228.466c5.782 0 10.47-4.683 10.47-10.459s-4.688-10.459-10.47-10.459c-5.782 0-10.47 4.683-10.47 10.459s4.688 10.459 10.47 10.459zm0 35.987c5.782 0 10.47-4.682 10.47-10.459 0-5.776-4.688-10.459-10.47-10.459-5.782 0-10.47 4.683-10.47 10.459 0 5.777 4.688 10.459 10.47 10.459zm0 35.995c5.782 0 10.47-4.683 10.47-10.459 0-5.777-4.688-10.459-10.47-10.459-5.782 0-10.47 4.682-10.47 10.459 0 5.776 4.688 10.459 10.47 10.459z" stroke="#F2F2F2" stroke-width="1.5" stroke-miterlimit="10"/><path d="M239.507 99.423h-124.05v12.266h124.05V99.423zm46.648 152.911H143.787v3.32h142.368v-3.32zm0 35.988H143.787v3.319h142.368v-3.319zm0-146.76H143.787v3.32h142.368v-3.32z" fill="#F2F2F2"/><path d="M144.223 150.479h105.561" stroke="#000" stroke-miterlimit="10"/><path d="M286.155 177.557H143.787v3.319h142.368v-3.319z" fill="#F2F2F2"/><path d="M144.223 186.467h105.561" stroke="#000" stroke-miterlimit="10"/><path d="M286.155 213.551H143.787v3.319h142.368v-3.319z" fill="#F2F2F2"/><path d="M144.223 222.461h105.561" stroke="#000" stroke-miterlimit="10"/><path d="M246.558 340.293c9.203 0 16.664-7.454 16.664-16.648 0-9.194-7.461-16.647-16.664-16.647-9.204 0-16.665 7.453-16.665 16.647 0 9.194 7.461 16.648 16.665 16.648z" fill="#8CB3FF"/><path d="M253.609 325.239h-5.42v5.45h-3.241v-5.45h-5.419v-3.253h5.419v-5.414h3.264v5.414h5.419l-.022 3.253z" fill="#fff"/></g><path d="M45.962 119.519a4.149 4.149 0 011.958-4.178 4.152 4.152 0 012.339-.594 4.156 4.156 0 013.848 5.141 4.152 4.152 0 01-3.41 3.111 4.163 4.163 0 01-3.09-.761 4.149 4.149 0 01-1.645-2.719v0zm12.176-1.852l28.889-4.393m-35.679 15.953l42.775-6.505" stroke="#8CB3FF" stroke-width="3" stroke-linecap="round" stroke-linejoin="round"/><path d="M45.733 109.259a5.394 5.394 0 00-3.533 2.133 5.383 5.383 0 00-.987 4.004l4.108 26.94a5.387 5.387 0 002.136 3.529 5.399 5.399 0 004.009.987l37.342-5.678 11.813 10.99-1.97-12.509 2.334-.355a5.397 5.397 0 003.533-2.134 5.376 5.376 0 00.987-4.003l-4.106-26.93a5.39 5.39 0 00-6.144-4.504l-49.522 7.53z" stroke="#8CB3FF" stroke-width="3" stroke-linecap="round" stroke-linejoin="round"/><ellipse rx="1.439" ry="1.437" transform="matrix(1.00006 0 0 .99994 127.495 84.578)" fill="#FF7676"/><ellipse cx="117.973" cy="82.809" rx="2.547" ry="2.543" fill="#FF7676"/><g clip-path="url(#clip1_41_3537)"><path d="M303.286 133.556H259.06c-1.423 0-2.577 1.131-2.577 2.527v10.202c0 1.396 1.154 2.528 2.577 2.528h44.226c1.424 0 2.578-1.132 2.578-2.528v-10.202c0-1.396-1.154-2.527-2.578-2.527z" fill="#80DAC3"/><path d="M293.675 139.519l3.396 3.331m2.643-3.331l-3.396 3.331" stroke="#8CB3FF" stroke-miterlimit="10"/><path d="M261.015 142.072h1.01c0 .278.283.495.631.495.329 0 .58-.145.58-.429 0-.171-.097-.329-.489-.455l-.527-.161c-.98-.259-1.167-.847-1.167-1.258 0-.783.683-1.314 1.566-1.314.85 0 1.501.499 1.501 1.346h-1.01c0-.259-.161-.48-.508-.48-.316 0-.522.19-.522.429 0 .09.025.285.438.399l.464.138c.631.19 1.275.513 1.275 1.302 0 .935-.826 1.334-1.636 1.334-.949 0-1.606-.543-1.606-1.346zm6.92.423v.866h-2.906v-4.354h2.848v.866h-1.836v.897h1.611v.891h-1.611v.834h1.894zm.825-3.488h1.01v3.488h1.63v.866h-2.64v-4.354zm6.185 3.488v.866h-2.904v-4.354h2.845v.866h-1.836v.897h1.611v.891h-1.611v.834h1.895zm.483-1.32a2.192 2.192 0 01.437-1.319c.286-.382.69-.665 1.151-.805a2.3 2.3 0 011.414.023c.457.156.85.452 1.122.843l-.786.537c-.232-.347-.573-.562-1.037-.562-.747 0-1.282.562-1.282 1.283 0 .72.515 1.301 1.275 1.301.471 0 .812-.214 1.044-.568l.786.543c-.207.297-.486.54-.811.708a2.302 2.302 0 01-1.056.253 2.243 2.243 0 01-2.257-2.237zm7.765-1.302h-1.173v3.488h-1.01v-3.488h-1.174v-.866h3.357v.866z" fill="#fff"/></g><g clip-path="url(#clip2_41_3537)"><path d="M471.5 187.322H250.947v99.079H471.5v-99.079z" fill="#CCDEFF"/><path d="M300.457 268.397c17.446 0 31.589-14.119 31.589-31.536 0-17.416-14.143-31.535-31.589-31.535-17.447 0-31.59 14.119-31.59 31.535 0 17.417 14.143 31.536 31.59 31.536z" fill="#fff"/><path d="M296.206 264.799c-.427 2.185-12.518 0-12.059-2.344l2.87-14.635 12.05 2.344-2.861 14.635z" fill="#F8CDBA"/><path d="M285.303 256.56c.255-1.303 5.284-6.112 7.434-4.91-2.64-1.551-4.551-4.328-5.73-3.83l-1.704 8.74z" fill="#009"/><path d="M300.084 255.868c8.814 0 15.958-7.133 15.958-15.931 0-8.798-7.144-15.931-15.958-15.931-8.813 0-15.958 7.133-15.958 15.931 0 8.798 7.145 15.931 15.958 15.931z" fill="#F8CDBA"/><path d="M317.45 245.265c.079-.759-1.042-1.498-2.505-1.65-1.463-.151-2.713.342-2.792 1.101-.079.76 1.043 1.499 2.506 1.65 1.462.152 2.712-.341 2.791-1.101zm-16.648-1.728c.079-.759-1.043-1.498-2.505-1.65-1.463-.151-2.713.341-2.792 1.101-.079.76 1.043 1.499 2.505 1.65 1.463.152 2.713-.341 2.792-1.101z" fill="#FA9E9F"/><path d="M308.638 241.467c.422.757 2.656 3.981-.152 4.901m-5.698 2.906c-.792-.106-1.92-1.195-2.478-2.151" stroke="#009" stroke-width=".69" stroke-miterlimit="10" stroke-linecap="round"/><path d="M287.187 241.465a3.51 3.51 0 003.512-3.507 3.51 3.51 0 00-3.512-3.507 3.51 3.51 0 00-3.513 3.507 3.51 3.51 0 003.513 3.507z" fill="#F8CDBA"/><path d="M289.56 241.052c0 4.667-5.174 7.747-6.913 7.747-1.928 0-2.183-1.392-2.183-1.997 0-1.957 1.149-3.633 3.577-5.75-.422-.727-3.577-4.569-3.577-9.988 0-5.734 3.52-10.53 5.882-10.53 2.513 0 4.183 2.601 4.183 3.69 0-8.004 8.597-13.738 13.702-13.738 4.76 0 5.578 2.064 5.578 3.752 0 3.684-2.91 7.626-4.002 8.594 2.663-1.958 6.821-3.933 10.428-3.933 2.266 0 5.153.637 5.153 3.752 0 5.709-5.355 9.013-7.145 9.938-.898-1.771-1.838-2.771-2.603-3.654.331 1.078-.992 3.039-3.517 3.482-1.394.243-18.563-2.064-18.563 8.635z" fill="#009"/><path d="M348.358 217.94h106.83m-106.83 12.614h106.83m-106.83 12.614h106.83m-106.83 12.614h106.83" stroke="#fff" stroke-width="7" stroke-miterlimit="10" stroke-linecap="round"/></g><g clip-path="url(#clip3_41_3537)"><path d="M346.075 65.057l-77.05-13.84a4.477 4.477 0 00-5.202 3.605l-6.818 37.862a4.471 4.471 0 003.617 5.19l77.05 13.841a4.478 4.478 0 005.202-3.606l6.818-37.862a4.472 4.472 0 00-3.617-5.19z" fill="#8CB3FF"/><path d="M314.295 59.349l-45.267-8.132a4.501 4.501 0 00-3.35.732 4.479 4.479 0 00-1.856 2.877l-6.817 37.855a4.475 4.475 0 00.736 3.342 4.497 4.497 0 002.885 1.852l45.267 8.131 8.402-46.657z" fill="#CCDEFF"/><path d="M349.756 69.678a4.475 4.475 0 00-.972-3 4.498 4.498 0 00-2.712-1.622l-77.043-13.839a4.503 4.503 0 00-3.108.575 4.486 4.486 0 00-1.958 2.475l85.793 15.411z" fill="#80DAC3"/><path d="M266.2 97.643l-1.495 8.3 13.458-6.15-11.963-2.15z" fill="#CCDEFF"/><path d="M268.848 71.373l34.171 6.138m-35.19-.478L302 83.17m-35.19-.478l34.171 6.138m-35.19-.478l34.171 6.138" stroke="#fff" stroke-width="3" stroke-miterlimit="10" stroke-linecap="round"/><path d="M301.227 72.645a3.52 3.52 0 004.09-2.835 3.517 3.517 0 00-2.845-4.082 3.52 3.52 0 00-4.09 2.836 3.517 3.517 0 002.845 4.081z" fill="#fff"/><ellipse cx="338.415" cy="110.137" rx="1.993" ry="1.99" fill="#FF7676"/></g><g clip-path="url(#clip4_41_3537)"><path d="M137.348 331.296h-26.792c-9.295 0-16.83 7.525-16.83 16.808s7.535 16.808 16.83 16.808h26.792c9.295 0 16.83-7.525 16.83-16.808s-7.535-16.808-16.83-16.808z" fill="#CCDEFF"/><path d="M138.378 359.081c6.07 0 10.991-4.915 10.991-10.977s-4.921-10.976-10.991-10.976c-6.07 0-10.991 4.914-10.991 10.976 0 6.062 4.921 10.977 10.991 10.977z" fill="#8CB3FF"/></g><g clip-path="url(#clip5_41_3537)"><path d="M197.137 247.864l-3.321-2.93h3.388l-.067 2.93z" fill="#8CB3FF"/><path d="M179.352 245.266h16.528a4.577 4.577 0 004.579-4.574v-2.132a4.576 4.576 0 00-4.579-4.573h-16.528a4.577 4.577 0 00-4.58 4.573v2.132a4.577 4.577 0 004.58 4.574z" fill="#8CB3FF"/><path d="M191.048 240.621a.996.996 0 100-1.992.996.996 0 000 1.992zm-3.432 0a.996.996 0 100-1.992.996.996 0 000 1.992zm-3.433 0a.996.996 0 10.002-1.992.996.996 0 00-.002 1.992z" fill="#fff"/></g><g clip-path="url(#clip6_41_3537)"><path d="M245.985 79.46h3.54c.372-.001.728-.149.991-.41s.412-.615.413-.984V56.505a1.358 1.358 0 00-.413-.985l-4.454-4.464a1.396 1.396 0 00-.992-.41h-13.228a1.415 1.415 0 00-.991.41 1.393 1.393 0 00-.413.984v2.086" fill="#80DAC3"/><path d="M240.038 54.126h-12.981a1.587 1.587 0 00-1.114.462 1.562 1.562 0 00-.461 1.108v25.668a1.558 1.558 0 00.465 1.113 1.573 1.573 0 001.122.457h17.335c.419 0 .821-.165 1.118-.46.296-.294.463-.693.463-1.11V60.02c0-.417-.166-.817-.46-1.114l-4.366-4.335a1.606 1.606 0 00-1.121-.445z" fill="#D8D8D8"/><path d="M245.985 59.434h-4.407a.888.888 0 01-.626-.257.876.876 0 01-.259-.622v-4.429" fill="#969696"/><path d="M250.947 55.919h-4.407a.888.888 0 01-.626-.258.875.875 0 01-.259-.621v-4.395" fill="#8CB3FF"/><path d="M232.527 56.774h-4.178a.552.552 0 00-.554.551c0 .304.248.55.554.55h4.178a.552.552 0 00.554-.55.552.552 0 00-.554-.55zm0 2.648h-4.178a.552.552 0 00-.554.551c0 .304.248.55.554.55h4.178a.552.552 0 00.554-.55.552.552 0 00-.554-.55zm10.832 4.529h-15.252a.552.552 0 00-.554.55c0 .305.248.552.554.552h15.252a.553.553 0 00.555-.551.553.553 0 00-.555-.55zm0 2.602h-15.252a.552.552 0 00-.554.55c0 .305.248.551.554.551h15.252a.553.553 0 00.555-.55.553.553 0 00-.555-.551zm0 2.601h-15.252a.552.552 0 00-.554.551c0 .304.248.55.554.55h15.252a.553.553 0 00.555-.55.553.553 0 00-.555-.55z" fill="#969696"/></g><ellipse cx="353.141" cy="143.838" rx="2.547" ry="2.543" fill="#FF7676"/><ellipse cx="355.466" cy="135.767" rx="2.214" ry="2.211" fill="#FF7676"/><ellipse cx="363.216" cy="145.938" rx="1.993" ry="1.99" fill="#FF7676"/><ellipse cx="319.704" cy="371.215" rx="1.439" ry="1.438" fill="#FF7676"/><ellipse cx="323.468" cy="364.359" rx="2.325" ry="2.322" fill="#FF7676"/><defs><clipPath id="clip0_41_3537"><path fill="#fff" transform="translate(61.838 77.406)" d="M0 0h251.776v270.698H0z"/></clipPath><clipPath id="clip1_41_3537"><path fill="#fff" transform="translate(256.483 133.556)" d="M0 0h49.381v15.257H0z"/></clipPath><clipPath id="clip2_41_3537"><path fill="#fff" transform="translate(250.947 187.322)" d="M0 0h220.553v99.079H0z"/></clipPath><clipPath id="clip3_41_3537"><path fill="#fff" transform="rotate(10.184 -150.644 1510.097) skewX(-.025)" d="M0 0h87.243v54.628H0z"/></clipPath><clipPath id="clip4_41_3537"><path fill="#fff" transform="translate(93.726 331.296)" d="M0 0h60.453v33.616H0z"/></clipPath><clipPath id="clip5_41_3537"><path fill="#fff" transform="translate(174.772 233.986)" d="M0 0h25.687v13.878H0z"/></clipPath><clipPath id="clip6_41_3537"><path fill="#fff" transform="translate(225.482 50.645)" d="M0 0h25.465v32.289H0z"/></clipPath></defs></svg>