<svg width="471" height="409" fill="none" xmlns="http://www.w3.org/2000/svg"><path fill-rule="evenodd" clip-rule="evenodd" d="M230.97 33.58c50.583-4.676 100.96-50.22 146.196-27.044 44.821 22.963 54.753 83.953 62.286 133.857 6.654 44.078-8.957 86.069-22.688 128.469-13.733 42.408-20.643 91.56-56.917 117.346-36.158 25.705-84.929 20.494-128.877 14.734-39.242-5.143-73.105-24.331-106.526-45.586-35.852-22.802-77.72-42.352-93.74-81.779-16.455-40.5-3.916-85.811 8.633-127.693 12.818-42.783 25.328-91.478 63.789-114.017 37.719-22.105 84.34 5.734 127.844 1.713z" fill="#F5F9FF"/><g clip-path="url(#clip0_41_3650)"><path d="M428.103 198.535c16.804 0 22.476 11.498 22.476 19.489 0 16.665-3.575 12.949-3.575 30.172 0 18.511 23.496 41.883 23.496 73.855 0 43.708-37.799 50.116-42.397 50.116-23.835 0-32.689-26.473-32.689-42.533 0-19.028 16.602-39.396 16.602-57.736 0-13.415-4.342-18.627-4.342-39.425 0-20.915 12.004-33.938 20.429-33.938z" fill="#CCDEFF"/><path d="M426.848 408.376V226.057m0 118.329l27.987-28.951m-28.685-52.294l-9.015-9.099m9.713-15.307l12.586-12.699" stroke="#8CB3FF" stroke-miterlimit="10" stroke-linecap="round"/></g><path d="M362.4 175.149H249.771v175.15H362.4v-175.15z" fill="#fff"/><path d="M227.198 282.052h115.48m-115.48 11.454h115.48" stroke="#000" stroke-miterlimit="10"/><path d="M306.086 255.804c16.272 0 29.464-13.248 29.464-29.589 0-16.342-13.192-29.59-29.464-29.59-16.273 0-29.465 13.248-29.465 29.59 0 16.341 13.192 29.589 29.465 29.589z" fill="#F2F2F2"/><path opacity=".7" d="M389.25 237.43h-46.572v43.43h46.572v-43.43z" fill="#0C9"/><path d="M359.013 260.277l10.428 4.214v3.265l-13.626-6.313v-2.432l13.626-6.296v3.264l-10.428 4.298z" fill="#fff"/><path d="M306.561 89.006H55.166v166.082H306.56V89.006zM55.166 97.835H306.56" stroke="#000" stroke-miterlimit="10"/><path d="M149.023 112.63H73.462v75.882h75.561V112.63zm14.494 6.682h115.481m-115.481 11.453h115.481m-115.481 11.454h115.481m-115.481 11.454h115.481" stroke="#000" stroke-miterlimit="10"/><path opacity=".44" d="M111.242 132.674l-20.577 35.794h41.155l-20.578-35.794z" fill="#0C9"/><path d="M60.63 95.688a2.143 2.143 0 002.14-2.148 2.143 2.143 0 00-2.14-2.147 2.143 2.143 0 00-2.138 2.147c0 1.186.958 2.148 2.139 2.148z" fill="#8CB3FF"/><path d="M67.997 95.688a2.143 2.143 0 002.138-2.148 2.143 2.143 0 00-2.138-2.147 2.143 2.143 0 00-2.139 2.147c0 1.186.957 2.148 2.139 2.148z" fill="#CCDEFF"/><path d="M75.362 95.688a2.143 2.143 0 002.139-2.148 2.143 2.143 0 00-2.139-2.147 2.143 2.143 0 00-2.138 2.147c0 1.186.957 2.148 2.138 2.148z" fill="#80DAC3"/><path d="M165.893 224.425l7.129-6.323h-7.271l.142 6.323z" fill="#8CB3FF"/><path d="M204.064 194.478h-35.471c-5.428 0-9.828 4.418-9.828 9.869v4.601c0 5.45 4.4 9.869 9.828 9.869h35.471c5.427 0 9.827-4.419 9.827-9.869v-4.601c0-5.451-4.4-9.869-9.827-9.869z" fill="#8CB3FF"/><path d="M178.962 208.795a2.143 2.143 0 002.139-2.147 2.144 2.144 0 00-2.139-2.148 2.143 2.143 0 00-2.138 2.148c0 1.186.957 2.147 2.138 2.147zm7.366 0a2.143 2.143 0 002.139-2.147 2.144 2.144 0 00-2.139-2.148 2.143 2.143 0 00-2.138 2.148c0 1.186.957 2.147 2.138 2.147zm7.366 0a2.143 2.143 0 002.139-2.147 2.144 2.144 0 00-2.139-2.148 2.143 2.143 0 00-2.138 2.148c0 1.186.957 2.147 2.138 2.147z" fill="#fff"/><path d="M343.153 190.66a3.334 3.334 0 003.327-3.341c0-1.845-1.49-3.34-3.327-3.34a3.333 3.333 0 00-3.326 3.34 3.334 3.334 0 003.326 3.341zm19.485 11.454a3.334 3.334 0 003.326-3.341 3.334 3.334 0 00-3.326-3.341 3.334 3.334 0 00-3.327 3.341 3.334 3.334 0 003.327 3.341zm23.271-143.89a3.334 3.334 0 003.327-3.34 3.334 3.334 0 00-3.327-3.342 3.333 3.333 0 00-3.326 3.341 3.333 3.333 0 003.326 3.34zM63.244 205.931a3.333 3.333 0 003.327-3.34 3.334 3.334 0 00-3.327-3.341 3.334 3.334 0 00-3.326 3.341c0 1.845 1.49 3.34 3.326 3.34z" fill="#FF7676"/><path d="M359.054 344.796c-2.428-2.659-4.638-10.194-4.305-12.151m-27.202 11.822c4.985.343 11.258.572 15.682 3.603" stroke="#fff" stroke-width=".4" stroke-linecap="round" stroke-linejoin="round"/><path d="M317.123 72.82H297.47v61.485h19.653V72.82zm25.357 40.881h-19.654v20.604h19.654v-20.604zm25.357-17.329h-19.654v37.932h19.654V96.372z" fill="#8CB3FF"/><g clip-path="url(#clip1_41_3650)"><path d="M255.912 331.209h-32.27c-5.393 0-9.765 4.408-9.765 9.846v7.034c0 5.438 4.372 9.846 9.765 9.846h32.27c5.393 0 9.765-4.408 9.765-9.846v-7.034c0-5.438-4.372-9.846-9.765-9.846z" fill="#8CB3FF"/><path d="M226.196 340.878l5.353 5.398-4.448 4.486-5.354-5.398a3.186 3.186 0 01-.921-2.243c0-.842.331-1.648.921-2.243a3.132 3.132 0 014.449 0z" fill="#FF7676"/><path d="M232.464 345.364l-5.354 5.398-4.449-4.485 5.354-5.398a3.132 3.132 0 014.449 0 3.187 3.187 0 010 4.486v-.001z" fill="#FF7676"/><path d="M237.558 341.15h1.729v6.129h2.786v1.521h-4.515v-7.65zm5.605 0h1.729v7.651h-1.729v-7.651zm7.333 7.651l-2.125-2.465v2.465h-1.729v-7.651h1.729v2.344l1.652-2.343h2.158l-2.863 3.786 3.546 3.864h-2.368zm7.984-1.521v1.521h-4.966v-7.651h4.867v1.521h-3.138v1.577h2.754v1.565h-2.754v1.466l3.237.001z" fill="#fff"/></g><g clip-path="url(#clip2_41_3650)"><path d="M153.277 296.832a62.18 62.18 0 01-3.432 39.246 61.844 61.844 0 01-26.303 29.23" stroke="#000" stroke-width="12" stroke-miterlimit="10" stroke-linecap="round"/><path d="M148.428 339.116c-15.287 30.562-52.347 42.893-82.78 27.542-30.434-15.352-42.712-52.57-27.426-83.133 15.286-30.562 52.347-42.893 82.78-27.541" stroke="#8CB3FF" stroke-width="13" stroke-miterlimit="10" stroke-linecap="round"/><path d="M148.428 339.116c-15.287 30.562-52.347 42.893-82.78 27.542a61.544 61.544 0 01-19.807-15.806 61.84 61.84 0 01-11.795-22.475" stroke="#CCDEFF" stroke-width="13" stroke-miterlimit="10" stroke-linecap="round"/><path d="M78.27 341.42c16.553 8.35 36.713 1.643 45.027-14.98 8.315-16.624 1.636-36.869-14.917-45.219-16.554-8.35-36.713-1.642-45.027 14.981-8.315 16.624-1.636 36.869 14.917 45.218z" fill="#80DAC3"/></g><ellipse cx="194.155" cy="314.266" rx="4.515" ry="4.534" fill="#FF7676"/><ellipse cx="180.136" cy="296.37" rx="2.376" ry="2.386" fill="#FF7676"/><defs><clipPath id="clip0_41_3650"><path fill="#fff" transform="translate(395.414 198.535)" d="M0 0h75.086v210.466H0z"/></clipPath><clipPath id="clip1_41_3650"><path fill="#fff" transform="translate(213.877 331.209)" d="M0 0h51.8v26.726H0z"/></clipPath><clipPath id="clip2_41_3650"><path fill="#fff" transform="matrix(.89284 .45037 -.44733 .89437 62.572 218.102)" d="M0 0h138.41v138.76H0z"/></clipPath></defs></svg>