<svg width="476" height="437" fill="none" xmlns="http://www.w3.org/2000/svg"><path fill-rule="evenodd" clip-rule="evenodd" d="M66.277 303.259C39.42 249.911 25.905 182.583 59.633 133.25c32.242-47.159 98.713-47.153 156.018-48.474 46.253-1.066 87.437 15.108 124.991 41.996 47.348 33.9 114.761 67.574 108.669 125.3-6.062 57.438-81.319 71.354-132.33 98.907-41.173 22.24-81.001 49.937-127.015 41.179-52.557-10.004-99.724-41.293-123.69-88.899z" fill="#F5F9FF"/><g clip-path="url(#clip0_41_3430)"><path d="M395.157 65.36H300.7v163.673h94.457V65.361z" fill="#fff"/><path d="M371.991 82.285c.927 0 1.678-.748 1.678-1.67 0-.923-.751-1.67-1.678-1.67-.928 0-1.679.747-1.679 1.67 0 .922.751 1.67 1.679 1.67zm6.267 0c.927 0 1.678-.748 1.678-1.67 0-.923-.751-1.67-1.678-1.67-.928 0-1.679.747-1.679 1.67 0 .922.751 1.67 1.679 1.67zm6.267 0c.927 0 1.679-.748 1.679-1.67 0-.923-.752-1.67-1.679-1.67s-1.679.747-1.679 1.67c0 .922.752 1.67 1.679 1.67z" fill="#80DAC3"/><path d="M348.824 77.386h-41.633v6.235h41.633v-6.235z" fill="#8CB3FF"/><path d="M321.069 97.427h-13.878v6.235h13.878v-6.235z" fill="#CCDEFF"/><path d="M326.665 100.545h18.354" stroke="#CCDEFF" stroke-width="2" stroke-miterlimit="10" stroke-linecap="round"/><path d="M321.069 165.568h-13.878v6.236h13.878v-6.236z" fill="#CCDEFF"/><path d="M326.665 168.686h23.054" stroke="#CCDEFF" stroke-width="2" stroke-miterlimit="10" stroke-linecap="round"/><path d="M327.961 110.788H312.61c-2.993 0-5.419 2.414-5.419 5.391v29.969c0 2.977 2.426 5.391 5.419 5.391h15.351c2.992 0 5.419-2.414 5.419-5.391v-29.969c0-2.977-2.427-5.391-5.419-5.391zm34.693 0h-15.35c-2.993 0-5.419 2.414-5.419 5.391v29.969c0 2.977 2.426 5.391 5.419 5.391h15.35c2.993 0 5.419-2.414 5.419-5.391v-29.969c0-2.977-2.426-5.391-5.419-5.391z" fill="#8CB3FF"/><path d="M327.961 178.707H312.61c-2.993 0-5.419 2.414-5.419 5.391v29.969c0 2.977 2.426 5.391 5.419 5.391h15.351c2.992 0 5.419-2.414 5.419-5.391v-29.969c0-2.977-2.427-5.391-5.419-5.391zm34.693 0h-15.35c-2.993 0-5.419 2.414-5.419 5.391v29.969c0 2.977 2.426 5.391 5.419 5.391h15.35c2.993 0 5.419-2.414 5.419-5.391v-29.969c0-2.977-2.426-5.391-5.419-5.391zm32.503 0h-13.159a5.443 5.443 0 00-3.832 1.579 5.372 5.372 0 00-1.587 3.812v29.969a5.372 5.372 0 001.587 3.812 5.42 5.42 0 003.832 1.579h13.159v-40.751z" fill="#CCDEFF"/><path d="M395.157 110.788h-13.159a5.434 5.434 0 00-3.832 1.579 5.377 5.377 0 00-1.587 3.812v29.969c0 1.43.571 2.801 1.587 3.812a5.434 5.434 0 003.832 1.579h13.159v-40.751z" fill="#8CB3FF"/></g><path d="M348.317 152.636H61.049v188.026h287.268V152.636z" stroke="#000" stroke-miterlimit="10"/><g clip-path="url(#clip1_41_3430)"><path d="M337.055 266.382l-16.785 2.038c-2.805.34-4.797 2.916-4.449 5.752l.45 3.669c.347 2.837 2.903 4.86 5.708 4.52l16.785-2.038c2.805-.341 4.797-2.916 4.45-5.753l-.45-3.669c-.348-2.836-2.904-4.86-5.709-4.519z" fill="#8CB3FF"/><path d="M322.217 273.302l3.13 2.478-2.028 2.621-3.129-2.478a1.68 1.68 0 01-.287-2.34 1.633 1.633 0 012.314-.281z" fill="#FF7676"/><path d="M325.764 275.246l-2.44 3.154-2.6-2.059 2.439-3.154a1.641 1.641 0 011.098-.625c.434-.052.871.071 1.216.344a1.682 1.682 0 01.287 2.341v-.001z" fill="#FF7676"/><path d="M328.144 272.727l.899-.11.392 3.197 1.449-.175.098.793-2.349.285-.489-3.99zm2.915-.354l.9-.109.489 3.991-.899.109-.49-3.991zm4.304 3.528l-1.263-1.152.158 1.286-.9.109-.489-3.991.899-.109.15 1.222.71-1.326 1.122-.136-1.247 2.155 2.091 1.792-1.231.15zm4.055-1.298l.098.793-2.583.314-.49-3.991 2.532-.308.097.794-1.632.198.101.822 1.432-.173.1.816-1.432.174.094.765 1.683-.204z" fill="#fff"/></g><g clip-path="url(#clip2_41_3430)"><path d="M298.595 338.969c.816 0 1.599.321 2.177.892.577.572.901 1.347.901 2.155 0 .808-.324 1.582-.901 2.154a3.099 3.099 0 01-2.177.892h-121.19a3.099 3.099 0 01-2.177-.892 3.033 3.033 0 01-.902-2.154c0-.808.325-1.583.902-2.155a3.099 3.099 0 012.177-.892h121.19zm0-.648h-121.19c-.99 0-1.94.389-2.64 1.082a3.678 3.678 0 00-1.094 2.613c0 .98.394 1.919 1.094 2.612.7.693 1.65 1.082 2.64 1.082h121.19c.99 0 1.94-.389 2.64-1.082a3.675 3.675 0 001.094-2.612c0-.98-.394-1.92-1.094-2.613a3.753 3.753 0 00-2.64-1.082z" fill="#80DAC3"/><path d="M177.667 342.016h91.187" stroke="#8CB3FF" stroke-width="7" stroke-miterlimit="10" stroke-linecap="round"/><path d="M276.584 326.264H263.22v6.871h13.364v-6.871z" fill="#FF7676"/><path fill-rule="evenodd" clip-rule="evenodd" d="M269.931 336.693l2.395-4.141h-4.789l2.394 4.141z" fill="#FF7676"/><path d="M268.968 327.9c.566 0 .926.389.926.861s-.36.85-.926.85c-.566 0-.917-.377-.917-.85s.355-.861.917-.861zm1.847.05h.505l-2.199 3.397h-.498l2.192-3.397zm-1.847.489c-.16 0-.288.092-.288.322a.267.267 0 00.169.29.284.284 0 00.119.02.281.281 0 00.286-.19.288.288 0 00.011-.12.26.26 0 00-.009-.124.262.262 0 00-.062-.107.287.287 0 00-.226-.091zm1.991 1.259c.561 0 .917.381.917.86 0 .478-.36.85-.917.85-.556 0-.917-.376-.917-.85 0-.475.357-.86.917-.86zm0 .539c-.165 0-.293.092-.293.321a.277.277 0 00.07.226.279.279 0 00.223.085.281.281 0 00.287-.19.276.276 0 00.011-.121.276.276 0 00-.175-.301.303.303 0 00-.123-.02z" fill="#fff"/></g><g clip-path="url(#clip3_41_3430)"><path d="M371.679 292.415l-26.697-8.369a1.646 1.646 0 00-2.063 1.069l-2.747 8.676a1.634 1.634 0 001.075 2.053l26.696 8.369a1.646 1.646 0 002.063-1.069l2.747-8.676a1.636 1.636 0 00-1.074-2.053z" fill="#8CB3FF"/><path d="M352.034 308.118l7.024-9.709-7.187-2.253.163 11.962z" fill="#8CB3FF"/><path d="M350.211 289.139l-4.656 4.244 6.027 1.889-1.371-6.133zm12.601 9.654l4.656-4.243-6.021-1.888 1.365 6.131zm-7.01-2.577a2.375 2.375 0 002.976-1.542 2.36 2.36 0 00-1.55-2.961 2.375 2.375 0 00-2.976 1.542 2.359 2.359 0 001.55 2.961z" fill="#fff"/></g><g clip-path="url(#clip4_41_3430)"><path d="M330.02 306.293l-4.666-.351 2.856-2.148 1.81 2.499z" fill="#8CB3FF"/><path d="M313.371 315.39l13.934-10.479a4.795 4.795 0 00.948-6.737l-1.358-1.788c-1.608-2.118-4.641-2.535-6.773-.931l-13.933 10.478a4.795 4.795 0 00-.948 6.738l1.358 1.787c1.608 2.118 4.64 2.535 6.772.932z" fill="#8CB3FF"/><path d="M320.274 304.081a1.043 1.043 0 00.206-1.466 1.054 1.054 0 00-1.473-.203 1.043 1.043 0 00-.207 1.466c.35.461 1.01.552 1.474.203zm-2.894 2.176a1.043 1.043 0 00.207-1.466 1.056 1.056 0 00-1.474-.203 1.043 1.043 0 00-.206 1.466c.35.461 1.01.552 1.473.203zm-2.893 2.176a1.044 1.044 0 00.206-1.467 1.056 1.056 0 00-1.474-.202 1.043 1.043 0 00-.206 1.466c.35.461 1.01.552 1.474.203z" fill="#fff"/></g><path d="M61.049 162.632h287.268" stroke="#000" stroke-miterlimit="10"/><path d="M100.419 195.59H85.757v131.294h14.662V195.59zm18.464-18.37H104.22v149.664h14.663V177.22zm18.463 91.852h-14.119v57.812h14.119v-57.812zm18.463 28.636h-14.662v29.176h14.662v-29.176zm19.007-50.249h-14.662v79.425h14.662v-79.425zm18.463-18.37h-14.662v97.795h14.662v-97.795zm17.92 10.266H197.08v87.529h14.119v-87.529zm19.007 16.209h-14.662v71.321h14.662v-71.321zm18.463-8.105h-14.662v79.425h14.662v-79.425z" fill="#CCDEFF"/><path d="M277.173 191.808h53.218m-53.218 7.024h53.218m-53.218 7.024h53.218m-53.218 7.024h53.218" stroke="#000" stroke-miterlimit="10"/><path d="M67.294 160.2a2.437 2.437 0 002.443-2.431 2.438 2.438 0 00-2.443-2.432 2.438 2.438 0 00-2.444 2.432 2.437 2.437 0 002.444 2.431z" fill="#8CB3FF"/><path d="M75.71 160.2a2.437 2.437 0 002.445-2.431 2.438 2.438 0 00-2.444-2.432 2.438 2.438 0 00-2.444 2.432 2.437 2.437 0 002.444 2.431z" fill="#CCDEFF"/><g clip-path="url(#clip5_41_3430)"><path d="M51.345 318.093v-.589l-1.424-1.767-3.263-3.977-3.5-4.207s-3.37-2.315-4.237-2.715c-3.156-1.45-6.265-2.557-9.979-2.557-2.284 0-10.821.341-10.84 1.767 0 2.115 11.956 10.121 20.724 14.01 3.821.035 12.519.035 12.519.035z" fill="#009"/><path d="M49.535 318.093c-12.168-9.279-37.003-60.003-30.637-78.797 13.562 6.864 28.442 30.529 35.46 50.513.372 1.3.669 2.619.89 3.953l2.848 12.961.712 11.37h-9.273z" fill="#8CB3FF"/><path d="M57.841 318.093c-4.105-3.311-5.417-13.114-5.452-16.773-.066-6.828.99-11.859 6.87-19.371 5.88-7.511 4.295-19.977 12.127-28.378 7.831-8.401 12.98-10.74 22.248-10.74 9.267 0 12.204 14.917 12.18 18.67-.107 15.129-9.712 17.267-15.562 24.496-4.254 5.243-4.586 9.532-5.873 11.983-6.918 13.19-12.519 18.175-16.672 20.113" fill="#80DAC3"/><path d="M60.084 316.997c.118-25.822 27.522-64.604 33.378-70.419m-31.877 58.701c-3.032-3.281-5.79-12.584-5.375-14.999m-2.391 25.603c-4.296-7.576-24.675-44.432-32.299-71.585" stroke="#fff" stroke-width=".4" stroke-linecap="round" stroke-linejoin="round"/><path d="M67.707 318.093h12.756l-10.68 39.502H41.23l-10.507-39.502h36.985z" fill="#009"/><path d="M22.25 304.855c6.224.424 14.055.707 19.608 4.448" stroke="#fff" stroke-width=".4" stroke-linecap="round" stroke-linejoin="round"/></g><path d="M84.128 160.2a2.437 2.437 0 002.444-2.431 2.438 2.438 0 00-2.444-2.432 2.438 2.438 0 00-2.444 2.432 2.437 2.437 0 002.444 2.431zm218.302 61.865h-25.523v10.266h25.523v-10.266zm27.695 0h-25.523v10.266h25.523v-10.266z" fill="#80DAC3"/><g clip-path="url(#clip6_41_3430)"><path d="M216.733 180.167h-10.957c-2.141 0-3.876 1.726-3.876 3.857v10.903c0 2.13 1.735 3.857 3.876 3.857h10.957c2.141 0 3.877-1.727 3.877-3.857v-10.903c0-2.131-1.736-3.857-3.877-3.857z" fill="#8CB3FF"/><path d="M219.585 185.194c2.225 0 4.029-1.794 4.029-4.008s-1.804-4.009-4.029-4.009c-2.225 0-4.028 1.795-4.028 4.009 0 2.214 1.803 4.008 4.028 4.008z" fill="#FF7676"/><path d="M220.786 181.897c0 .607-.533 1.024-1.284 1.024-.486 0-.864-.18-1.117-.546l.507-.427c.165.18.336.288.573.288.326 0 .533-.17.533-.411 0-.248-.212-.428-.533-.428h-.309v-.562h.135c.377 0 .579-.195.558-.411-.015-.17-.176-.279-.398-.279a.754.754 0 00-.564.258l-.393-.489c.263-.268.605-.464 1.06-.464.601 0 1.093.361 1.077.943 0 .272-.171.516-.456.659.373.139.611.448.611.845z" fill="#fff"/></g><g clip-path="url(#clip7_41_3430)"><path d="M367.937 239.817h-22.583c-.977 0-1.768.797-1.768 1.781v13.744c0 .983.791 1.78 1.768 1.78h22.583c.977 0 1.769-.797 1.769-1.78v-13.744c0-.984-.792-1.781-1.769-1.781z" fill="#CCDEFF"/><path d="M344.406 240.362l12.24 8.108m13.06-8.653l-13.06 8.653" stroke="#8CB3FF" stroke-width=".82" stroke-linecap="round" stroke-linejoin="round"/><path d="M369.706 243.58c2.064 0 3.737-1.685 3.737-3.762 0-2.078-1.673-3.762-3.737-3.762s-3.737 1.684-3.737 3.762c0 2.077 1.673 3.762 3.737 3.762z" fill="#FF7676"/><path d="M370.518 241.358h-.481v-3.191l-.966.355v-.435l1.372-.515h.075v3.786z" fill="#fff"/></g><ellipse cx="342.771" cy="175.286" rx="5.157" ry="5.132" fill="#FF7676"/><ellipse cx="350.643" cy="133.963" rx="2.714" ry="2.701" fill="#FF7676"/><ellipse cx="141.643" cy="148.547" rx="4.343" ry="4.321" fill="#FF7676"/><ellipse cx="224.157" cy="381.902" rx="4.343" ry="4.321" fill="#FF7676"/><ellipse cx="430.443" cy="261.443" rx="4.343" ry="4.321" fill="#FF7676"/><ellipse cx="433.157" cy="249.56" rx="2.714" ry="2.701" fill="#FF7676"/><ellipse cx="148.429" cy="140.175" rx="3.529" ry="3.511" fill="#FF7676"/><defs><clipPath id="clip0_41_3430"><path fill="#fff" transform="translate(300.7 65.36)" d="M0 0h94.457v163.672H0z"/></clipPath><clipPath id="clip1_41_3430"><path fill="#fff" transform="rotate(-6.922 2381.856 -2471.308) skewX(.068)" d="M0 0h27.141v14.046H0z"/></clipPath><clipPath id="clip2_41_3430"><path fill="#fff" transform="translate(173.671 326.264)" d="M0 0h128.657v19.446H0z"/></clipPath><clipPath id="clip3_41_3430"><path fill="#fff" transform="rotate(17.406 -754.507 1263.521) skewX(-.163)" d="M0 0h31.265v20.86H0z"/></clipPath><clipPath id="clip4_41_3430"><path fill="#fff" transform="matrix(.79922 -.60104 .60484 .79635 302.328 308.836)" d="M0 0h27.094v14.611H0z"/></clipPath><clipPath id="clip5_41_3430"><path fill="#fff" transform="translate(17.871 239.296)" d="M0 0h87.943v118.298H0z"/></clipPath><clipPath id="clip6_41_3430"><path fill="#fff" transform="translate(201.9 177.177)" d="M0 0h21.714v21.607H0z"/></clipPath><clipPath id="clip7_41_3430"><path fill="#fff" transform="translate(343.586 236.056)" d="M0 0h29.857v21.067H0z"/></clipPath></defs></svg>