<svg width="619" height="556" fill="none" xmlns="http://www.w3.org/2000/svg"><g clip-path="url(#clip0_46_998)"><path d="M137.284 410.151c-35.445 33.934 96.455 156.557 115.639 139.728 19.184-16.828-80.973-172.865-115.639-139.728z" fill="#CCDEFF"/><path d="M152.212 427.152c14.877 12.908 83.032 87.404 100.711 122.727" stroke="#8CB3FF" stroke-width="2" stroke-miterlimit="10" stroke-linecap="round"/><path d="M205.387 301.251c66.979-18.251 91.664 244.863 57.846 252.514-33.818 7.651-96.283-242.035-57.846-252.514z" fill="#009"/><path d="M220.679 345.213c5.449 15.857 35.998 127.567 42.554 208.552" stroke="#8CB3FF" stroke-width="2" stroke-miterlimit="10" stroke-linecap="round"/></g><g clip-path="url(#clip1_46_998)"><path d="M454.519 269.619c15.43 0 32.435 24.91 33.542 33.565 3.132 24.408-6.59 40.749-6.037 50.581 1.246 21.932 9.376 41.545 3.356 53.506-35.515 70.8-156.573 55.134-171.001 79.489-3.702 6.925-14.341 28.77-14.341 28.77-5.622-5.626-19.859-44.176-19.859-59.218 0-15.043 20.863-56.415 61.792-85.929 21.641-15.597 61.394-100.764 112.548-100.764z" fill="#8CB3FF"/><path d="M287.635 553.769c4.515-15.58 48.576-148.869 158.753-210.477m-38.04 25.931c.865-6.491 5.293-19.976 0-39.917m-26.728 64.481c.917-10.525 0-25.481-3.771-33.98m-20.931 62.438a146.134 146.134 0 0155.028 2.856" stroke="#009" stroke-width="2" stroke-miterlimit="10" stroke-linecap="round"/></g><g clip-path="url(#clip2_46_998)"><path d="M492.873 29.833H.465v324.06h492.408V29.833zM.465 47.06h492.408" stroke="#000" stroke-miterlimit="10"/><path d="M184.304 75.928H36.302V223.99h148.002V75.928zm28.39 13.037h226.191m-226.191 22.348h226.191m-226.191 22.35h226.191m-226.191 22.349h226.191" stroke="#000" stroke-miterlimit="10"/><path opacity=".44" d="M110.303 115.039L69.998 184.88h80.61l-40.305-69.841z" fill="#80DAC3"/><path d="M11.17 42.87a4.19 4.19 0 004.189-4.19 4.19 4.19 0 10-4.19 4.19z" fill="#8CB3FF"/><path d="M25.598 42.87a4.19 4.19 0 004.189-4.19 4.19 4.19 0 10-4.19 4.19z" fill="#CCDEFF"/><path d="M40.026 42.87a4.19 4.19 0 004.188-4.19 4.19 4.19 0 10-4.188 4.19z" fill="#B8E0D6"/></g><g clip-path="url(#clip3_46_998)"><path d="M486.916 232.809c-2.355 11.239-19.464 150.66-13.87 183.941 5.595 33.282 96.806 103.076 100.8 104.295 4.654-3.417 11.505-14.62 11.505-14.62s-66.88-77.513-68.128-80.624c-1.247-3.11 14.624-182.684 14.624-182.684l-44.931-10.308z" fill="#009"/><path d="M595.841 258.212l-68.239 278.44h-22.991l23.298-290.471 67.932 12.031z" fill="#0C9"/><path d="M547.373 98.79c9.42 0 58.558 1.591 67.438 18.893 8.88 17.302.512 97.274-5.008 100.375-2.978 1.667-3.788.047-4.654 3.436-.865 3.39-9.308 36.718-9.308 36.718-5.362.149-83.532-11.631-108.907-25.403.149-3.828 1.378-13.782 1.378-14.546-3.37 1.378-7.447 1.667-8.573 0-9.895-15.002 4.868-93.214 15.452-108.951 4.514-6.752 37.065-10.476 52.182-10.523z" fill="#80DAC3"/><path d="M579.728 220.265c2.309 0 22.182 13.968 20.479 20.831a9283.669 9283.669 0 015.789-22.544c-1.889.298-24.62 1.713-26.268 1.713z" fill="#009"/><path d="M559.539 107.914c0 3.036-23.932 3.036-23.932 0v-30.73h23.932v30.73z" fill="#F8CDBA"/><path d="M545.8 84.457c1.861 0 13.739 5.252 13.739 8.176V77.185c-2.96 0-13.739 7.272-13.739 7.272z" fill="#009"/><path d="M542.533 86.702c12.857 0 23.28-10.427 23.28-23.29 0-12.862-10.423-23.289-23.28-23.289-12.858 0-23.28 10.427-23.28 23.29 0 12.862 10.422 23.29 23.28 23.29z" fill="#F8CDBA"/><path d="M534.658 29.367c-11.952 0-19.408 7.506-19.408 17.125 0 8 1.945 12.525 4.226 13.67 1.443-7.766 4.58-11.36 7.177-12.906 2.01 1.545 5.473 5.289 10.09 6.444 4.617 1.154 16.634.93 26.342 7.99 3.165-2.887 6.339-6.64 6.339-11.063 0-4.424-1.955-9.974-13.46-13.177-7.586-2.114-8.638-8.083-21.306-8.083z" fill="#009"/><path d="M520.779 70.331c2.252 0 4.077-.95 4.077-2.123 0-1.172-1.825-2.123-4.077-2.123s-4.077.95-4.077 2.123c0 1.173 1.825 2.123 4.077 2.123zm25.644 0c2.252 0 4.077-.95 4.077-2.123 0-1.172-1.825-2.123-4.077-2.123-2.251 0-4.077.95-4.077 2.123 0 1.173 1.826 2.123 4.077 2.123z" fill="#FA9E9F"/><path d="M530.739 63.822c-.763 1.09-4.654 5.662-.549 7.506m8.219 5.326c1.219 0 3.118-1.527 4.114-2.896" stroke="#009" stroke-miterlimit="10" stroke-linecap="round"/><path d="M564.053 71.477a5.38 5.38 0 005.38-5.383 5.38 5.38 0 10-10.76 0 5.381 5.381 0 005.38 5.383z" fill="#F8CDBA"/><path d="M580.268 144.613c-.419 5.141-2.057 30.544-1.443 33.887-7.809 2.719-79.353 36.652-91.686 40.349m10.072-82.253c-1.639 5.755-7.186 31.875-3.286 44.009m21.539 26.38c3.723 2.617 39.421 18.42 88.754 12.46" stroke="#009" stroke-miterlimit="10" stroke-linecap="round"/><path d="M512.057 180.605c2.393.381-5.408-5.848-9.829-3.53-4.422 2.319-10.379 12.814-9.16 15.253.165.442.426.84.764 1.167a3.156 3.156 0 003.891.379c1.2-.782 10.136-13.94 14.334-13.269z" fill="#F8CDBA"/><path d="M584.559 507.617c1.276.931 12.585 8.586 12.678 13.41.093 4.823-10.509 20.812-12.678 21.268-2.168.457-3.667-1.35-3.667-4.581 0-3.232 4.04-8.893 3.5-11.408-.54-2.514-5.762-7.114-8.443-7.198m-50.525 17.544c0 2.217 1.285 16.129-1.294 17.423-2.578 1.295-30.913 2.058-32.197.773-1.285-1.285-2.067-3.995-.931-4.768 1.136-.772 12.101-2.97 13.581-3.994 1.48-1.025 3.546-6.519 2.792-9.434" fill="#009"/></g><g clip-path="url(#clip4_46_998)"><path d="M457.967 58.933l-13.962-12.338h14.241l-.279 12.338z" fill="#CCDEFF"/><path d="M383.203 47.991h69.477c10.631 0 19.249-8.622 19.249-19.257v-8.977C471.929 9.121 463.311.5 452.68.5h-69.477c-10.631 0-19.25 8.621-19.25 19.257v8.977c0 10.635 8.619 19.257 19.25 19.257z" fill="#CCDEFF"/><path d="M432.369 28.436a4.19 4.19 0 004.189-4.19 4.19 4.19 0 10-8.378 0 4.19 4.19 0 004.189 4.19zm-14.428 0a4.19 4.19 0 004.189-4.19 4.19 4.19 0 10-8.377 0 4.19 4.19 0 004.188 4.19zm-14.427 0a4.19 4.19 0 004.188-4.19 4.19 4.19 0 10-8.377 0 4.19 4.19 0 004.189 4.19z" fill="#fff"/></g><defs><clipPath id="clip0_46_998"><path fill="#fff" transform="translate(131.247 300.349)" d="M0 0h147.071v255.151H0z"/></clipPath><clipPath id="clip1_46_998"><path fill="#fff" transform="translate(280.179 269.619)" d="M0 0h208.505v285.881H0z"/></clipPath><clipPath id="clip2_46_998"><path fill="#fff" transform="translate(0 29.367)" d="M0 0h493.338v324.992H0z"/></clipPath><clipPath id="clip3_46_998"><path fill="#fff" transform="translate(471.929 29.367)" d="M0 0h146.763v526.142H0z"/></clipPath><clipPath id="clip4_46_998"><path fill="#fff" transform="translate(363.953 .5)" d="M0 0h107.976v58.433H0z"/></clipPath></defs></svg>