<svg width="472" height="439" viewBox="0 0 472 439" fill="none" xmlns="http://www.w3.org/2000/svg">
<path fill-rule="evenodd" clip-rule="evenodd" d="M213.867 45.4578C253.677 49.0749 296.81 33.2675 330.481 54.7851C364.074 76.2529 372.392 119.625 387.566 156.461C402.911 193.709 419.895 229.767 419.152 270.038C418.245 319.282 425.215 384.263 382.901 409.557C338.998 435.802 287.023 385.607 236.238 379.382C199.12 374.832 161.914 391.014 126.801 378.164C85.7586 363.144 42.4026 341.51 24.2421 301.801C5.83656 261.556 25.9501 216.311 32.788 172.596C40.4851 123.389 25.835 59.4553 66.6304 30.8121C107.991 1.77189 163.516 40.883 213.867 45.4578Z" fill="#F5F9FF"/>
<path d="M10.4233 220.693C29.9529 213.842 46.5951 240.627 51.0778 247.745C70.6796 279.013 54.1348 306.282 45.4474 309.41C30.303 314.87 13.8629 290.308 9.21061 282.531C1.27028 269.355 3.739 250.909 2.85834 245.287C1.97769 239.665 5.21518 222.52 10.4233 220.693Z" fill="#000099"/>
<path d="M60.9167 187.489C73.2314 185.73 80.3669 195.904 82.5721 201.718C86.1416 211.204 93.8329 216.3 93.8329 228.42C93.8329 256.704 76.5916 279.366 68.8498 279.366C51.7853 279.366 45.451 261.447 45.451 253.893C45.451 241.07 48.8473 225.605 48.4431 221.745C47.5913 213.816 42.8343 190.066 60.9167 187.489Z" fill="#8CB3FF"/>
<path d="M20.7601 242.011C25.0515 247.611 47.0823 299.235 51.5614 356.885" stroke="#80DAC3" stroke-width="2" stroke-linecap="round" stroke-linejoin="round"/>
<path d="M34.9589 240.122C34.4933 241.881 30.6278 252.451 27.5094 256.041" stroke="#80DAC3" stroke-width="2" stroke-linecap="round" stroke-linejoin="round"/>
<path d="M15.0504 273.218C18.0136 275.182 26.535 277.096 35.1972 277.147" stroke="#80DAC3" stroke-width="2" stroke-linecap="round" stroke-linejoin="round"/>
<path d="M46.0248 285.573C45.2236 286.575 42.9101 289.494 39.3875 290.91" stroke="#80DAC3" stroke-width="2" stroke-linecap="round" stroke-linejoin="round"/>
<path d="M66.1464 222.048C71.2174 256.041 59.13 342.379 58.6969 356.885" stroke="#80DAC3" stroke-width="2" stroke-linecap="round" stroke-linejoin="round"/>
<path d="M78.4142 224.914C77.0788 226.961 71.6288 231.819 67.489 233.329" stroke="#80DAC3" stroke-width="2" stroke-linecap="round" stroke-linejoin="round"/>
<path d="M54.5897 250.39C57.2533 251.615 62.2594 253.767 67.0813 253.767" stroke="#80DAC3" stroke-width="2" stroke-linecap="round" stroke-linejoin="round"/>
<g clip-path="url(#clip0_41_3537)">
<path d="M271.898 77.4058H96.9099V348.104H271.898V77.4058Z" fill="white"/>
<path d="M125.934 156.476C131.716 156.476 136.404 151.794 136.404 146.017C136.404 140.241 131.716 135.558 125.934 135.558C120.152 135.558 115.464 140.241 115.464 146.017C115.464 151.794 120.152 156.476 125.934 156.476Z" fill="#80DAC3"/>
<path d="M125.934 192.471C131.716 192.471 136.404 187.788 136.404 182.012C136.404 176.235 131.716 171.553 125.934 171.553C120.152 171.553 115.464 176.235 115.464 182.012C115.464 187.788 120.152 192.471 125.934 192.471Z" fill="#80DAC3"/>
<path d="M125.934 228.466C131.716 228.466 136.404 223.783 136.404 218.007C136.404 212.231 131.716 207.548 125.934 207.548C120.152 207.548 115.464 212.231 115.464 218.007C115.464 223.783 120.152 228.466 125.934 228.466Z" stroke="#F2F2F2" stroke-width="1.5" stroke-miterlimit="10"/>
<path d="M125.934 264.453C131.716 264.453 136.404 259.771 136.404 253.994C136.404 248.218 131.716 243.535 125.934 243.535C120.152 243.535 115.464 248.218 115.464 253.994C115.464 259.771 120.152 264.453 125.934 264.453Z" stroke="#F2F2F2" stroke-width="1.5" stroke-miterlimit="10"/>
<path d="M125.934 300.448C131.716 300.448 136.404 295.765 136.404 289.989C136.404 284.212 131.716 279.53 125.934 279.53C120.152 279.53 115.464 284.212 115.464 289.989C115.464 295.765 120.152 300.448 125.934 300.448Z" stroke="#F2F2F2" stroke-width="1.5" stroke-miterlimit="10"/>
<path d="M239.507 99.4229H115.457V111.689H239.507V99.4229Z" fill="#F2F2F2"/>
<path d="M286.155 252.334H143.787V255.654H286.155V252.334Z" fill="#F2F2F2"/>
<path d="M286.155 288.322H143.787V291.641H286.155V288.322Z" fill="#F2F2F2"/>
<path d="M286.155 141.562H143.787V144.882H286.155V141.562Z" fill="#F2F2F2"/>
<path d="M144.223 150.479H249.784" stroke="black" stroke-miterlimit="10"/>
<path d="M286.155 177.557H143.787V180.876H286.155V177.557Z" fill="#F2F2F2"/>
<path d="M144.223 186.467H249.784" stroke="black" stroke-miterlimit="10"/>
<path d="M286.155 213.551H143.787V216.87H286.155V213.551Z" fill="#F2F2F2"/>
<path d="M144.223 222.461H249.784" stroke="black" stroke-miterlimit="10"/>
<path d="M246.558 340.293C255.761 340.293 263.222 332.839 263.222 323.645C263.222 314.451 255.761 306.998 246.558 306.998C237.354 306.998 229.893 314.451 229.893 323.645C229.893 332.839 237.354 340.293 246.558 340.293Z" fill="#8CB3FF"/>
<path d="M253.609 325.239H248.189V330.689H244.948V325.239H239.529V321.986H244.948V316.572H248.212V321.986H253.631L253.609 325.239Z" fill="white"/>
</g>
<path d="M45.9615 119.519C45.8377 118.707 45.9577 117.877 46.3063 117.133C46.6549 116.39 47.2165 115.766 47.92 115.341C48.6236 114.916 49.4374 114.709 50.2587 114.747C51.08 114.784 51.8719 115.063 52.5341 115.55C53.1964 116.037 53.6993 116.708 53.9793 117.481C54.2593 118.253 54.3037 119.09 54.1071 119.888C53.9104 120.685 53.4815 121.406 52.8744 121.96C52.2674 122.514 51.5096 122.875 50.6969 122.999C49.607 123.164 48.4958 122.891 47.6077 122.238C46.7197 121.586 46.1275 120.608 45.9615 119.519V119.519Z" stroke="#8CB3FF" stroke-width="3" stroke-linecap="round" stroke-linejoin="round"/>
<path d="M58.1381 117.667L87.0268 113.274" stroke="#8CB3FF" stroke-width="3" stroke-linecap="round" stroke-linejoin="round"/>
<path d="M51.3477 129.227L94.1234 122.722" stroke="#8CB3FF" stroke-width="3" stroke-linecap="round" stroke-linejoin="round"/>
<path d="M45.7331 109.259C44.3189 109.474 43.0481 110.241 42.2004 111.392C41.3527 112.543 40.9974 113.983 41.2129 115.396L45.3213 142.336C45.5367 143.749 46.3051 145.018 47.4574 145.865C48.6098 146.712 50.0517 147.067 51.466 146.852L88.808 141.174L100.621 152.164L98.6507 139.655L100.985 139.3C102.399 139.085 103.67 138.317 104.518 137.166C105.366 136.016 105.721 134.575 105.505 133.163L101.399 106.233C101.181 104.823 100.411 103.557 99.2597 102.712C98.108 101.868 96.6679 101.514 95.2555 101.729L45.7331 109.259Z" stroke="#8CB3FF" stroke-width="3" stroke-linecap="round" stroke-linejoin="round"/>
<ellipse rx="1.43926" ry="1.43736" transform="matrix(1.00006 -8.81058e-07 -8.7805e-07 0.999936 127.495 84.5784)" fill="#FF7676"/>
<ellipse cx="117.973" cy="82.809" rx="2.54655" ry="2.54287" fill="#FF7676"/>
<g clip-path="url(#clip1_41_3537)">
<path d="M303.286 133.556H259.06C257.637 133.556 256.483 134.687 256.483 136.083V146.285C256.483 147.681 257.637 148.813 259.06 148.813H303.286C304.71 148.813 305.864 147.681 305.864 146.285V136.083C305.864 134.687 304.71 133.556 303.286 133.556Z" fill="#80DAC3"/>
<path d="M293.675 139.519L297.071 142.85" stroke="#8CB3FF" stroke-miterlimit="10"/>
<path d="M299.714 139.519L296.318 142.85" stroke="#8CB3FF" stroke-miterlimit="10"/>
<path d="M261.015 142.072H262.025C262.025 142.35 262.308 142.567 262.656 142.567C262.985 142.567 263.236 142.422 263.236 142.138C263.236 141.967 263.139 141.809 262.747 141.683L262.22 141.522C261.24 141.263 261.053 140.675 261.053 140.264C261.053 139.481 261.736 138.95 262.619 138.95C263.469 138.95 264.12 139.449 264.12 140.296H263.11C263.11 140.037 262.949 139.816 262.602 139.816C262.286 139.816 262.08 140.006 262.08 140.245C262.08 140.335 262.105 140.53 262.518 140.644L262.982 140.782C263.613 140.972 264.257 141.295 264.257 142.084C264.257 143.019 263.431 143.418 262.621 143.418C261.672 143.418 261.015 142.875 261.015 142.072Z" fill="white"/>
<path d="M267.935 142.495V143.361H265.029V139.007H267.877V139.873H266.041V140.77H267.652V141.661H266.041V142.495H267.935Z" fill="white"/>
<path d="M268.76 139.007H269.77V142.495H271.4V143.361H268.76V139.007Z" fill="white"/>
<path d="M274.945 142.495V143.361H272.041V139.007H274.886V139.873H273.05V140.77H274.661V141.661H273.05V142.495H274.945Z" fill="white"/>
<path d="M275.428 141.175C275.426 140.701 275.58 140.238 275.865 139.856C276.151 139.474 276.555 139.191 277.016 139.051C277.478 138.91 277.973 138.918 278.43 139.074C278.887 139.23 279.28 139.526 279.552 139.917L278.766 140.454C278.534 140.107 278.193 139.892 277.729 139.892C276.982 139.892 276.447 140.454 276.447 141.175C276.447 141.895 276.962 142.476 277.722 142.476C278.193 142.476 278.534 142.262 278.766 141.908L279.552 142.451C279.345 142.748 279.066 142.991 278.741 143.159C278.415 143.326 278.053 143.413 277.685 143.412C276.434 143.412 275.428 142.413 275.428 141.175Z" fill="white"/>
<path d="M283.193 139.873H282.02V143.361H281.01V139.873H279.836V139.007H283.193V139.873Z" fill="white"/>
</g>
<g clip-path="url(#clip2_41_3537)">
<path d="M471.5 187.322H250.947V286.401H471.5V187.322Z" fill="#CCDEFF"/>
<path d="M300.457 268.397C317.903 268.397 332.046 254.278 332.046 236.861C332.046 219.445 317.903 205.326 300.457 205.326C283.01 205.326 268.867 219.445 268.867 236.861C268.867 254.278 283.01 268.397 300.457 268.397Z" fill="white"/>
<path d="M296.206 264.799C295.779 266.984 283.688 264.799 284.147 262.455L287.017 247.82L299.067 250.164L296.206 264.799Z" fill="#F8CDBA"/>
<path d="M285.303 256.56C285.558 255.257 290.587 250.448 292.737 251.65C290.097 250.099 288.186 247.322 287.007 247.82L285.303 256.56Z" fill="#000099"/>
<path d="M300.084 255.868C308.898 255.868 316.042 248.735 316.042 239.937C316.042 231.139 308.898 224.006 300.084 224.006C291.271 224.006 284.126 231.139 284.126 239.937C284.126 248.735 291.271 255.868 300.084 255.868Z" fill="#F8CDBA"/>
<path d="M317.45 245.265C317.529 244.506 316.408 243.767 314.945 243.615C313.482 243.464 312.232 243.957 312.153 244.716C312.074 245.476 313.196 246.215 314.659 246.366C316.121 246.518 317.371 246.025 317.45 245.265Z" fill="#FA9E9F"/>
<path d="M300.802 243.537C300.881 242.778 299.759 242.039 298.297 241.887C296.834 241.736 295.584 242.228 295.505 242.988C295.426 243.748 296.548 244.487 298.01 244.638C299.473 244.79 300.723 244.297 300.802 243.537Z" fill="#FA9E9F"/>
<path d="M308.638 241.467C309.06 242.224 311.294 245.448 308.486 246.368" stroke="#000099" stroke-width="0.69" stroke-miterlimit="10" stroke-linecap="round"/>
<path d="M302.788 249.274C301.996 249.168 300.868 248.079 300.31 247.123" stroke="#000099" stroke-width="0.69" stroke-miterlimit="10" stroke-linecap="round"/>
<path d="M287.187 241.465C289.127 241.465 290.699 239.895 290.699 237.958C290.699 236.021 289.127 234.451 287.187 234.451C285.247 234.451 283.674 236.021 283.674 237.958C283.674 239.895 285.247 241.465 287.187 241.465Z" fill="#F8CDBA"/>
<path d="M289.56 241.052C289.56 245.719 284.386 248.799 282.647 248.799C280.719 248.799 280.464 247.407 280.464 246.802C280.464 244.845 281.613 243.169 284.041 241.052C283.619 240.325 280.464 236.483 280.464 231.064C280.464 225.33 283.984 220.534 286.346 220.534C288.859 220.534 290.529 223.135 290.529 224.224C290.529 216.22 299.126 210.486 304.231 210.486C308.991 210.486 309.809 212.55 309.809 214.238C309.809 217.922 306.899 221.864 305.807 222.832C308.47 220.874 312.628 218.899 316.235 218.899C318.501 218.899 321.388 219.536 321.388 222.651C321.388 228.36 316.033 231.664 314.243 232.589C313.345 230.818 312.405 229.818 311.64 228.935C311.971 230.013 310.648 231.974 308.123 232.417C306.729 232.66 289.56 230.353 289.56 241.052Z" fill="#000099"/>
<path d="M348.358 217.94H455.188" stroke="white" stroke-width="7" stroke-miterlimit="10" stroke-linecap="round"/>
<path d="M348.358 230.554H455.188" stroke="white" stroke-width="7" stroke-miterlimit="10" stroke-linecap="round"/>
<path d="M348.358 243.168H455.188" stroke="white" stroke-width="7" stroke-miterlimit="10" stroke-linecap="round"/>
<path d="M348.358 255.782H455.188" stroke="white" stroke-width="7" stroke-miterlimit="10" stroke-linecap="round"/>
</g>
<g clip-path="url(#clip3_41_3537)">
<path d="M346.075 65.057L269.025 51.2164C266.589 50.7789 264.261 52.3933 263.823 54.8222L257.005 92.6843C256.567 95.1132 258.187 97.4369 260.622 97.8743L337.672 111.715C340.107 112.152 342.436 110.538 342.874 108.109L349.692 70.247C350.129 67.8181 348.51 65.4945 346.075 65.057Z" fill="#8CB3FF"/>
<path d="M314.295 59.3485L269.028 51.2171C267.858 51.0096 266.654 51.2729 265.678 51.9492C264.702 52.6255 264.035 53.6599 263.822 54.826L257.005 92.6806C256.798 93.8476 257.062 95.0493 257.741 96.0228C258.419 96.9963 259.457 97.6622 260.626 97.875L305.893 106.006L314.295 59.3485Z" fill="#CCDEFF"/>
<path d="M349.756 69.6781C349.807 68.5935 349.462 67.5272 348.784 66.6772C348.106 65.8272 347.143 65.2512 346.072 65.0564L269.029 51.2171C267.957 51.0271 266.853 51.2315 265.921 51.7924C264.99 52.3533 264.294 53.2326 263.963 54.2669L349.756 69.6781Z" fill="#80DAC3"/>
<path d="M266.2 97.6431L264.705 105.943L278.163 99.7921L266.2 97.6431Z" fill="#CCDEFF"/>
<path d="M268.848 71.373L303.019 77.5112" stroke="white" stroke-width="3" stroke-miterlimit="10" stroke-linecap="round"/>
<path d="M267.829 77.0327L302 83.1709" stroke="white" stroke-width="3" stroke-miterlimit="10" stroke-linecap="round"/>
<path d="M266.81 82.6919L300.981 88.8301" stroke="white" stroke-width="3" stroke-miterlimit="10" stroke-linecap="round"/>
<path d="M265.791 88.3516L299.962 94.4898" stroke="white" stroke-width="3" stroke-miterlimit="10" stroke-linecap="round"/>
<path d="M301.227 72.6453C303.142 72.9893 304.973 71.7198 305.317 69.8097C305.661 67.8996 304.387 66.0724 302.472 65.7283C300.557 65.3843 298.726 66.6539 298.382 68.5639C298.038 70.474 299.312 72.3013 301.227 72.6453Z" fill="white"/>
<ellipse cx="338.415" cy="110.137" rx="1.99295" ry="1.99043" fill="#FF7676"/>
</g>
<g clip-path="url(#clip4_41_3537)">
<path d="M137.348 331.296H110.556C101.261 331.296 93.7257 338.821 93.7257 348.104C93.7257 357.387 101.261 364.912 110.556 364.912H137.348C146.643 364.912 154.178 357.387 154.178 348.104C154.178 338.821 146.643 331.296 137.348 331.296Z" fill="#CCDEFF"/>
<path d="M138.378 359.081C144.448 359.081 149.369 354.166 149.369 348.104C149.369 342.042 144.448 337.128 138.378 337.128C132.308 337.128 127.387 342.042 127.387 348.104C127.387 354.166 132.308 359.081 138.378 359.081Z" fill="#8CB3FF"/>
</g>
<g clip-path="url(#clip5_41_3537)">
<path d="M197.137 247.864L193.816 244.934H197.204L197.137 247.864Z" fill="#8CB3FF"/>
<path d="M179.352 245.266H195.88C198.409 245.266 200.459 243.218 200.459 240.692V238.56C200.459 236.034 198.409 233.987 195.88 233.987H179.352C176.823 233.987 174.772 236.034 174.772 238.56V240.692C174.772 243.218 176.823 245.266 179.352 245.266Z" fill="#8CB3FF"/>
<path d="M191.048 240.621C191.598 240.621 192.044 240.175 192.044 239.626C192.044 239.076 191.598 238.63 191.048 238.63C190.498 238.63 190.052 239.076 190.052 239.626C190.052 240.175 190.498 240.621 191.048 240.621Z" fill="white"/>
<path d="M187.616 240.621C188.166 240.621 188.612 240.175 188.612 239.626C188.612 239.076 188.166 238.63 187.616 238.63C187.065 238.63 186.619 239.076 186.619 239.626C186.619 240.175 187.065 240.621 187.616 240.621Z" fill="white"/>
<path d="M184.183 240.621C184.734 240.621 185.18 240.175 185.18 239.626C185.18 239.076 184.734 238.63 184.183 238.63C183.633 238.63 183.187 239.076 183.187 239.626C183.187 240.175 183.633 240.621 184.183 240.621Z" fill="white"/>
</g>
<g clip-path="url(#clip6_41_3537)">
<path d="M245.985 79.4603H249.525C249.897 79.4587 250.253 79.3113 250.516 79.0501C250.779 78.789 250.928 78.4352 250.929 78.0658V56.5046C250.93 56.3215 250.894 56.1401 250.823 55.9711C250.752 55.8021 250.648 55.6488 250.516 55.5202L246.062 51.0556C245.932 50.9253 245.778 50.8218 245.608 50.7514C245.437 50.681 245.255 50.645 245.07 50.6455H231.842C231.47 50.6471 231.114 50.7945 230.851 51.0556C230.588 51.3168 230.439 51.6706 230.438 52.04V54.1258" fill="#80DAC3"/>
<path d="M240.038 54.1255H227.057C226.639 54.1271 226.238 54.2932 225.943 54.5875C225.647 54.8818 225.482 55.2803 225.482 55.6957V81.3642C225.482 81.5709 225.523 81.7756 225.603 81.9665C225.682 82.1573 225.799 82.3307 225.947 82.4766C226.094 82.6225 226.269 82.738 226.462 82.8166C226.654 82.8951 226.861 82.9352 227.069 82.9344H244.404C244.823 82.9344 245.225 82.769 245.522 82.4745C245.818 82.18 245.985 81.7806 245.985 81.3642V60.0197C245.985 59.6031 245.819 59.2032 245.525 58.9065L241.159 54.5708C240.858 54.2826 240.456 54.1228 240.038 54.1255Z" fill="#D8D8D8"/>
<path d="M245.985 59.4343H241.578C241.343 59.4343 241.118 59.3417 240.952 59.1769C240.786 59.012 240.693 58.7885 240.693 58.5554V54.126" fill="#969696"/>
<path d="M250.947 55.9186H246.54C246.305 55.9186 246.08 55.826 245.914 55.6612C245.748 55.4964 245.655 55.2729 245.655 55.0398V50.6455" fill="#8CB3FF"/>
<path d="M232.527 56.7744H228.349C228.043 56.7744 227.795 57.021 227.795 57.3252C227.795 57.6293 228.043 57.8759 228.349 57.8759H232.527C232.833 57.8759 233.081 57.6293 233.081 57.3252C233.081 57.021 232.833 56.7744 232.527 56.7744Z" fill="#969696"/>
<path d="M232.527 59.4224H228.349C228.043 59.4224 227.795 59.6689 227.795 59.9731C227.795 60.2773 228.043 60.5239 228.349 60.5239H232.527C232.833 60.5239 233.081 60.2773 233.081 59.9731C233.081 59.6689 232.833 59.4224 232.527 59.4224Z" fill="#969696"/>
<path d="M243.359 63.9512H228.107C227.801 63.9512 227.553 64.1978 227.553 64.5019C227.553 64.8061 227.801 65.0527 228.107 65.0527H243.359C243.666 65.0527 243.914 64.8061 243.914 64.5019C243.914 64.1978 243.666 63.9512 243.359 63.9512Z" fill="#969696"/>
<path d="M243.359 66.5527H228.107C227.801 66.5527 227.553 66.7993 227.553 67.1035C227.553 67.4077 227.801 67.6542 228.107 67.6542H243.359C243.666 67.6542 243.914 67.4077 243.914 67.1035C243.914 66.7993 243.666 66.5527 243.359 66.5527Z" fill="#969696"/>
<path d="M243.359 69.1543H228.107C227.801 69.1543 227.553 69.4009 227.553 69.705C227.553 70.0092 227.801 70.2558 228.107 70.2558H243.359C243.666 70.2558 243.914 70.0092 243.914 69.705C243.914 69.4009 243.666 69.1543 243.359 69.1543Z" fill="#969696"/>
</g>
<ellipse cx="353.141" cy="143.838" rx="2.54654" ry="2.54285" fill="#FF7676"/>
<ellipse cx="355.466" cy="135.767" rx="2.21437" ry="2.21119" fill="#FF7676"/>
<ellipse cx="363.216" cy="145.938" rx="1.99294" ry="1.99007" fill="#FF7676"/>
<ellipse cx="319.704" cy="371.215" rx="1.43938" ry="1.43755" fill="#FF7676"/>
<ellipse cx="323.468" cy="364.359" rx="2.32509" ry="2.32216" fill="#FF7676"/>
<defs>
<clipPath id="clip0_41_3537">
<rect width="251.776" height="270.698" fill="white" transform="translate(61.8384 77.4058)"/>
</clipPath>
<clipPath id="clip1_41_3537">
<rect width="49.3808" height="15.2572" fill="white" transform="translate(256.483 133.556)"/>
</clipPath>
<clipPath id="clip2_41_3537">
<rect width="220.553" height="99.0791" fill="white" transform="translate(250.947 187.322)"/>
</clipPath>
<clipPath id="clip3_41_3537">
<rect width="87.2433" height="54.6284" fill="white" transform="matrix(0.984246 0.176802 -0.177235 0.984169 264.615 50.4243)"/>
</clipPath>
<clipPath id="clip4_41_3537">
<rect width="60.4528" height="33.6161" fill="white" transform="translate(93.7257 331.296)"/>
</clipPath>
<clipPath id="clip5_41_3537">
<rect width="25.6868" height="13.8777" fill="white" transform="translate(174.772 233.986)"/>
</clipPath>
<clipPath id="clip6_41_3537">
<rect width="25.4654" height="32.2892" fill="white" transform="translate(225.482 50.6455)"/>
</clipPath>
</defs>
</svg>
