<svg width="471" height="409" viewBox="0 0 471 409" fill="none" xmlns="http://www.w3.org/2000/svg">
<path fill-rule="evenodd" clip-rule="evenodd" d="M230.97 33.5798C281.553 28.9042 331.93 -16.64 377.166 6.53593C421.987 29.4992 431.919 90.4889 439.452 140.393C446.106 184.471 430.495 226.462 416.764 268.862C403.031 311.27 396.121 360.422 359.847 386.208C323.689 411.913 274.918 406.702 230.97 400.942C191.728 395.799 157.865 376.611 124.444 355.356C88.5916 332.554 46.7234 313.004 30.7043 273.577C14.2494 233.077 26.7877 187.766 39.3366 145.884C52.155 103.101 64.6651 54.4061 103.126 31.8669C140.845 9.76218 187.466 37.601 230.97 33.5798Z" fill="#F5F9FF"/>
<g clip-path="url(#clip0_41_3650)">
<path d="M428.103 198.535C444.907 198.535 450.579 210.033 450.579 218.024C450.579 234.689 447.004 230.973 447.004 248.196C447.004 266.707 470.5 290.079 470.5 322.051C470.5 365.759 432.701 372.167 428.103 372.167C404.268 372.167 395.414 345.694 395.414 329.634C395.414 310.606 412.016 290.238 412.016 271.898C412.016 258.483 407.674 253.271 407.674 232.473C407.674 211.558 419.678 198.535 428.103 198.535Z" fill="#CCDEFF"/>
<path d="M426.848 408.376V226.057" stroke="#8CB3FF" stroke-miterlimit="10" stroke-linecap="round"/>
<path d="M426.848 344.386L454.835 315.435" stroke="#8CB3FF" stroke-miterlimit="10" stroke-linecap="round"/>
<path d="M426.15 263.141L417.135 254.042" stroke="#8CB3FF" stroke-miterlimit="10" stroke-linecap="round"/>
<path d="M426.848 238.735L439.434 226.036" stroke="#8CB3FF" stroke-miterlimit="10" stroke-linecap="round"/>
</g>
<path d="M362.4 175.149H249.771V350.299H362.4V175.149Z" fill="white"/>
<path d="M227.198 282.052H342.678" stroke="black" stroke-miterlimit="10"/>
<path d="M227.198 293.506H342.678" stroke="black" stroke-miterlimit="10"/>
<path d="M306.086 255.804C322.358 255.804 335.55 242.556 335.55 226.215C335.55 209.873 322.358 196.625 306.086 196.625C289.813 196.625 276.621 209.873 276.621 226.215C276.621 242.556 289.813 255.804 306.086 255.804Z" fill="#F2F2F2"/>
<path opacity="0.7" d="M389.25 237.43H342.678V280.86H389.25V237.43Z" fill="#00CC99"/>
<path d="M359.013 260.277L369.441 264.491V267.756L355.815 261.443V259.011L369.441 252.715V255.979L359.013 260.277Z" fill="white"/>
<path d="M306.561 89.0063H55.1655V255.088H306.561V89.0063Z" stroke="black" stroke-miterlimit="10"/>
<path d="M55.1655 97.8354H306.561" stroke="black" stroke-miterlimit="10"/>
<path d="M149.023 112.63H73.4617V188.512H149.023V112.63Z" stroke="black" stroke-miterlimit="10"/>
<path d="M163.517 119.312H278.998" stroke="black" stroke-miterlimit="10"/>
<path d="M163.517 130.765H278.998" stroke="black" stroke-miterlimit="10"/>
<path d="M163.517 142.219H278.998" stroke="black" stroke-miterlimit="10"/>
<path d="M163.517 153.673H278.998" stroke="black" stroke-miterlimit="10"/>
<path opacity="0.44" d="M111.242 132.674L90.6649 168.468H131.82L111.242 132.674Z" fill="#00CC99"/>
<path d="M60.6306 95.6878C61.8117 95.6878 62.7691 94.7263 62.7691 93.5402C62.7691 92.3541 61.8117 91.3926 60.6306 91.3926C59.4495 91.3926 58.4921 92.3541 58.4921 93.5402C58.4921 94.7263 59.4495 95.6878 60.6306 95.6878Z" fill="#8CB3FF"/>
<path d="M67.9966 95.6878C69.1776 95.6878 70.1351 94.7263 70.1351 93.5402C70.1351 92.3541 69.1776 91.3926 67.9966 91.3926C66.8155 91.3926 65.858 92.3541 65.858 93.5402C65.858 94.7263 66.8155 95.6878 67.9966 95.6878Z" fill="#CCDEFF"/>
<path d="M75.3625 95.6878C76.5436 95.6878 77.501 94.7263 77.501 93.5402C77.501 92.3541 76.5436 91.3926 75.3625 91.3926C74.1814 91.3926 73.224 92.3541 73.224 93.5402C73.224 94.7263 74.1814 95.6878 75.3625 95.6878Z" fill="#80DAC3"/>
<path d="M165.893 224.425L173.022 218.102H165.751L165.893 224.425Z" fill="#8CB3FF"/>
<path d="M204.064 194.478H168.593C163.165 194.478 158.765 198.896 158.765 204.347V208.948C158.765 214.398 163.165 218.817 168.593 218.817H204.064C209.491 218.817 213.891 214.398 213.891 208.948V204.347C213.891 198.896 209.491 194.478 204.064 194.478Z" fill="#8CB3FF"/>
<path d="M178.962 208.795C180.143 208.795 181.101 207.834 181.101 206.648C181.101 205.462 180.143 204.5 178.962 204.5C177.781 204.5 176.824 205.462 176.824 206.648C176.824 207.834 177.781 208.795 178.962 208.795Z" fill="white"/>
<path d="M186.328 208.795C187.509 208.795 188.467 207.834 188.467 206.648C188.467 205.462 187.509 204.5 186.328 204.5C185.147 204.5 184.19 205.462 184.19 206.648C184.19 207.834 185.147 208.795 186.328 208.795Z" fill="white"/>
<path d="M193.694 208.795C194.875 208.795 195.833 207.834 195.833 206.648C195.833 205.462 194.875 204.5 193.694 204.5C192.513 204.5 191.556 205.462 191.556 206.648C191.556 207.834 192.513 208.795 193.694 208.795Z" fill="white"/>
<path d="M343.153 190.66C344.99 190.66 346.48 189.164 346.48 187.319C346.48 185.474 344.99 183.979 343.153 183.979C341.316 183.979 339.827 185.474 339.827 187.319C339.827 189.164 341.316 190.66 343.153 190.66Z" fill="#FF7676"/>
<path d="M362.638 202.114C364.475 202.114 365.964 200.618 365.964 198.773C365.964 196.928 364.475 195.432 362.638 195.432C360.8 195.432 359.311 196.928 359.311 198.773C359.311 200.618 360.8 202.114 362.638 202.114Z" fill="#FF7676"/>
<path d="M385.909 58.2239C387.747 58.2239 389.236 56.7282 389.236 54.8832C389.236 53.0382 387.747 51.5425 385.909 51.5425C384.072 51.5425 382.583 53.0382 382.583 54.8832C382.583 56.7282 384.072 58.2239 385.909 58.2239Z" fill="#FF7676"/>
<path d="M63.2443 205.931C65.0815 205.931 66.5709 204.436 66.5709 202.591C66.5709 200.746 65.0815 199.25 63.2443 199.25C61.4071 199.25 59.9177 200.746 59.9177 202.591C59.9177 204.436 61.4071 205.931 63.2443 205.931Z" fill="#FF7676"/>
<path d="M359.054 344.796C356.626 342.137 354.416 334.602 354.749 332.645" stroke="white" stroke-width="0.4" stroke-linecap="round" stroke-linejoin="round"/>
<path d="M327.547 344.467C332.532 344.81 338.805 345.039 343.229 348.07" stroke="white" stroke-width="0.4" stroke-linecap="round" stroke-linejoin="round"/>
<path d="M317.123 72.8203H297.47V134.305H317.123V72.8203Z" fill="#8CB3FF"/>
<path d="M342.48 113.701H322.826V134.305H342.48V113.701Z" fill="#8CB3FF"/>
<path d="M367.837 96.3721H348.183V134.304H367.837V96.3721Z" fill="#8CB3FF"/>
<g clip-path="url(#clip1_41_3650)">
<path d="M255.912 331.209H223.642C218.249 331.209 213.877 335.617 213.877 341.055V348.089C213.877 353.527 218.249 357.935 223.642 357.935H255.912C261.305 357.935 265.677 353.527 265.677 348.089V341.055C265.677 335.617 261.305 331.209 255.912 331.209Z" fill="#8CB3FF"/>
<path d="M226.196 340.878L231.549 346.276L227.101 350.762L221.747 345.364C221.157 344.769 220.826 343.962 220.826 343.121C220.826 342.279 221.157 341.473 221.747 340.878C222.337 340.283 223.137 339.949 223.972 339.949C224.806 339.949 225.606 340.283 226.196 340.878L226.196 340.878Z" fill="#FF7676"/>
<path d="M232.464 345.364L227.11 350.762L222.661 346.277L228.015 340.879C228.605 340.284 229.405 339.95 230.24 339.95C231.074 339.95 231.874 340.284 232.464 340.879C233.054 341.473 233.386 342.28 233.386 343.122C233.386 343.963 233.054 344.77 232.464 345.365L232.464 345.364Z" fill="#FF7676"/>
<path d="M237.558 341.15H239.287V347.279H242.073V348.8H237.558V341.15Z" fill="white"/>
<path d="M243.163 341.15H244.892V348.801H243.163V341.15Z" fill="white"/>
<path d="M250.496 348.801L248.371 346.336V348.801H246.642V341.15H248.371V343.494L250.023 341.151H252.181L249.318 344.937L252.864 348.801H250.496Z" fill="white"/>
<path d="M258.48 347.28V348.801H253.514V341.15H258.381V342.671H255.243V344.248H257.997V345.813H255.243V347.279L258.48 347.28Z" fill="white"/>
</g>
<g clip-path="url(#clip2_41_3650)">
<path d="M153.277 296.832C156.417 309.941 155.212 323.72 149.845 336.078C144.479 348.437 135.244 358.699 123.542 365.308" stroke="black" stroke-width="12" stroke-miterlimit="10" stroke-linecap="round"/>
<path d="M148.428 339.116C133.141 369.678 96.0807 382.009 65.6473 366.658C35.2139 351.306 22.9356 314.088 38.222 283.525C53.5083 252.963 90.569 240.632 121.002 255.984" stroke="#8CB3FF" stroke-width="13" stroke-miterlimit="10" stroke-linecap="round"/>
<path d="M148.428 339.116C133.141 369.678 96.0807 382.009 65.6473 366.658C58.0258 362.825 51.281 357.442 45.8408 350.852C40.4007 344.263 36.384 336.609 34.0457 328.377" stroke="#CCDEFF" stroke-width="13" stroke-miterlimit="10" stroke-linecap="round"/>
<path d="M78.2702 341.42C94.8234 349.77 114.983 343.063 123.297 326.44C131.612 309.816 124.933 289.571 108.38 281.221C91.8264 272.871 71.6671 279.579 63.3526 296.202C55.0381 312.826 61.7169 333.071 78.2702 341.42Z" fill="#80DAC3"/>
</g>
<ellipse cx="194.155" cy="314.266" rx="4.51466" ry="4.53384" fill="#FF7676"/>
<ellipse cx="180.136" cy="296.37" rx="2.37614" ry="2.38623" fill="#FF7676"/>
<defs>
<clipPath id="clip0_41_3650">
<rect width="75.0859" height="210.466" fill="white" transform="translate(395.414 198.535)"/>
</clipPath>
<clipPath id="clip1_41_3650">
<rect width="51.7998" height="26.7258" fill="white" transform="translate(213.877 331.209)"/>
</clipPath>
<clipPath id="clip2_41_3650">
<rect width="138.41" height="138.76" fill="white" transform="matrix(0.892842 0.450369 -0.447331 0.894369 62.5718 218.102)"/>
</clipPath>
</defs>
</svg>
