<svg width="476" height="437" viewBox="0 0 476 437" fill="none" xmlns="http://www.w3.org/2000/svg">
<path fill-rule="evenodd" clip-rule="evenodd" d="M66.2766 303.259C39.4213 249.911 25.905 182.583 59.6335 133.25C91.8753 86.0915 158.346 86.0968 215.651 84.7757C261.904 83.7095 303.088 99.8838 340.642 126.772C387.99 160.672 455.403 194.346 449.311 252.072C443.249 309.51 367.992 323.426 316.981 350.979C275.808 373.219 235.98 400.916 189.966 392.158C137.409 382.154 90.2416 350.865 66.2766 303.259Z" fill="#F5F9FF"/>
<g clip-path="url(#clip0_41_3430)">
<path d="M395.157 65.3608H300.7V229.033H395.157V65.3608Z" fill="white"/>
<path d="M371.991 82.2846C372.918 82.2846 373.669 81.5368 373.669 80.6145C373.669 79.6921 372.918 78.9443 371.991 78.9443C371.063 78.9443 370.312 79.6921 370.312 80.6145C370.312 81.5368 371.063 82.2846 371.991 82.2846Z" fill="#80DAC3"/>
<path d="M378.258 82.2846C379.185 82.2846 379.936 81.5368 379.936 80.6145C379.936 79.6921 379.185 78.9443 378.258 78.9443C377.33 78.9443 376.579 79.6921 376.579 80.6145C376.579 81.5368 377.33 82.2846 378.258 82.2846Z" fill="#80DAC3"/>
<path d="M384.525 82.2846C385.452 82.2846 386.204 81.5368 386.204 80.6145C386.204 79.6921 385.452 78.9443 384.525 78.9443C383.598 78.9443 382.846 79.6921 382.846 80.6145C382.846 81.5368 383.598 82.2846 384.525 82.2846Z" fill="#80DAC3"/>
<path d="M348.824 77.3857H307.191V83.6209H348.824V77.3857Z" fill="#8CB3FF"/>
<path d="M321.069 97.4272H307.191V103.662H321.069V97.4272Z" fill="#CCDEFF"/>
<path d="M326.665 100.545H345.019" stroke="#CCDEFF" stroke-width="2" stroke-miterlimit="10" stroke-linecap="round"/>
<path d="M321.069 165.568H307.191V171.804H321.069V165.568Z" fill="#CCDEFF"/>
<path d="M326.665 168.686H349.719" stroke="#CCDEFF" stroke-width="2" stroke-miterlimit="10" stroke-linecap="round"/>
<path d="M327.961 110.788H312.61C309.617 110.788 307.191 113.202 307.191 116.179V146.148C307.191 149.125 309.617 151.539 312.61 151.539H327.961C330.953 151.539 333.38 149.125 333.38 146.148V116.179C333.38 113.202 330.953 110.788 327.961 110.788Z" fill="#8CB3FF"/>
<path d="M362.654 110.788H347.304C344.311 110.788 341.885 113.202 341.885 116.179V146.148C341.885 149.125 344.311 151.539 347.304 151.539H362.654C365.647 151.539 368.073 149.125 368.073 146.148V116.179C368.073 113.202 365.647 110.788 362.654 110.788Z" fill="#8CB3FF"/>
<path d="M327.961 178.707H312.61C309.617 178.707 307.191 181.121 307.191 184.098V214.067C307.191 217.044 309.617 219.458 312.61 219.458H327.961C330.953 219.458 333.38 217.044 333.38 214.067V184.098C333.38 181.121 330.953 178.707 327.961 178.707Z" fill="#CCDEFF"/>
<path d="M362.654 178.707H347.304C344.311 178.707 341.885 181.121 341.885 184.098V214.067C341.885 217.044 344.311 219.458 347.304 219.458H362.654C365.647 219.458 368.073 217.044 368.073 214.067V184.098C368.073 181.121 365.647 178.707 362.654 178.707Z" fill="#CCDEFF"/>
<path d="M395.157 178.707H381.998C381.286 178.707 380.582 178.846 379.924 179.117C379.267 179.388 378.669 179.785 378.166 180.286C377.663 180.787 377.264 181.381 376.991 182.035C376.719 182.689 376.579 183.39 376.579 184.098V214.067C376.579 214.775 376.719 215.476 376.991 216.13C377.264 216.784 377.663 217.378 378.166 217.879C378.669 218.38 379.267 218.777 379.924 219.048C380.582 219.319 381.286 219.458 381.998 219.458H395.157V178.707Z" fill="#CCDEFF"/>
<path d="M395.157 110.788H381.998C380.561 110.788 379.182 111.356 378.166 112.367C377.15 113.378 376.579 114.749 376.579 116.179V146.148C376.579 147.578 377.15 148.949 378.166 149.96C379.182 150.971 380.561 151.539 381.998 151.539H395.157V110.788Z" fill="#8CB3FF"/>
</g>
<path d="M348.317 152.636H61.049V340.662H348.317V152.636Z" stroke="black" stroke-miterlimit="10"/>
<g clip-path="url(#clip1_41_3430)">
<path d="M337.055 266.382L320.27 268.42C317.465 268.76 315.473 271.336 315.821 274.172L316.271 277.841C316.618 280.678 319.174 282.701 321.979 282.361L338.764 280.323C341.569 279.982 343.561 277.407 343.214 274.57L342.764 270.901C342.416 268.065 339.86 266.041 337.055 266.382Z" fill="#8CB3FF"/>
<path d="M322.217 273.302L325.347 275.78L323.319 278.401L320.19 275.923C319.845 275.65 319.621 275.25 319.567 274.811C319.513 274.372 319.634 273.93 319.903 273.583C320.171 273.235 320.566 273.011 321 272.958C321.434 272.905 321.872 273.029 322.217 273.302L322.217 273.302Z" fill="#FF7676"/>
<path d="M325.764 275.246L323.324 278.4L320.724 276.341L323.163 273.187C323.432 272.84 323.827 272.615 324.261 272.562C324.695 272.51 325.132 272.633 325.477 272.906C325.822 273.18 326.046 273.579 326.1 274.018C326.154 274.457 326.033 274.899 325.764 275.247L325.764 275.246Z" fill="#FF7676"/>
<path d="M328.144 272.727L329.043 272.617L329.435 275.814L330.884 275.639L330.982 276.432L328.633 276.717L328.144 272.727Z" fill="white"/>
<path d="M331.059 272.373L331.959 272.264L332.448 276.255L331.549 276.364L331.059 272.373Z" fill="white"/>
<path d="M335.363 275.901L334.1 274.749L334.258 276.035L333.358 276.144L332.869 272.153L333.768 272.044L333.918 273.266L334.628 271.94L335.75 271.804L334.503 273.959L336.594 275.751L335.363 275.901Z" fill="white"/>
<path d="M339.418 274.603L339.516 275.396L336.933 275.71L336.443 271.719L338.975 271.411L339.072 272.205L337.44 272.403L337.541 273.225L338.973 273.052L339.073 273.868L337.641 274.042L337.735 274.807L339.418 274.603Z" fill="white"/>
</g>
<g clip-path="url(#clip2_41_3430)">
<path d="M298.595 338.969C299.411 338.969 300.194 339.29 300.772 339.861C301.349 340.433 301.673 341.208 301.673 342.016C301.673 342.824 301.349 343.598 300.772 344.17C300.194 344.741 299.411 345.062 298.595 345.062H177.405C176.589 345.062 175.806 344.741 175.228 344.17C174.651 343.598 174.326 342.824 174.326 342.016C174.326 341.208 174.651 340.433 175.228 339.861C175.806 339.29 176.589 338.969 177.405 338.969H298.595ZM298.595 338.321H177.405C176.415 338.321 175.465 338.71 174.765 339.403C174.065 340.096 173.671 341.036 173.671 342.016C173.671 342.996 174.065 343.935 174.765 344.628C175.465 345.321 176.415 345.71 177.405 345.71H298.595C299.585 345.71 300.535 345.321 301.235 344.628C301.935 343.935 302.329 342.996 302.329 342.016C302.329 341.036 301.935 340.096 301.235 339.403C300.535 338.71 299.585 338.321 298.595 338.321Z" fill="#80DAC3"/>
<path d="M177.667 342.016H268.854" stroke="#8CB3FF" stroke-width="7" stroke-miterlimit="10" stroke-linecap="round"/>
<path d="M276.584 326.264H263.22V333.135H276.584V326.264Z" fill="#FF7676"/>
<path fill-rule="evenodd" clip-rule="evenodd" d="M269.931 336.693L272.326 332.552H267.537L269.931 336.693Z" fill="#FF7676"/>
<path d="M268.968 327.9C269.534 327.9 269.894 328.289 269.894 328.761C269.894 329.233 269.534 329.611 268.968 329.611C268.402 329.611 268.051 329.234 268.051 328.761C268.051 328.288 268.406 327.9 268.968 327.9ZM270.815 327.95H271.32L269.121 331.347H268.623L270.815 327.95ZM268.968 328.439C268.808 328.439 268.68 328.531 268.68 328.761C268.674 328.801 268.677 328.841 268.689 328.88C268.702 328.918 268.722 328.954 268.75 328.983C268.777 329.013 268.811 329.036 268.849 329.051C268.887 329.066 268.927 329.073 268.968 329.071C269.009 329.074 269.05 329.067 269.089 329.053C269.128 329.038 269.162 329.015 269.191 328.985C269.219 328.956 269.241 328.92 269.254 328.881C269.266 328.842 269.27 328.801 269.265 328.761C269.272 328.719 269.269 328.677 269.256 328.637C269.244 328.597 269.223 328.56 269.194 328.53C269.166 328.499 269.131 328.475 269.091 328.459C269.052 328.443 269.01 328.437 268.968 328.439ZM270.959 329.698C271.52 329.698 271.876 330.079 271.876 330.558C271.876 331.036 271.516 331.408 270.959 331.408C270.403 331.408 270.042 331.032 270.042 330.558C270.042 330.083 270.399 329.698 270.959 329.698ZM270.959 330.237C270.794 330.237 270.666 330.329 270.666 330.558C270.66 330.598 270.663 330.639 270.675 330.679C270.687 330.718 270.708 330.754 270.736 330.784C270.765 330.814 270.799 330.837 270.838 330.851C270.877 330.866 270.918 330.872 270.959 330.869C271.001 330.872 271.042 330.866 271.081 330.851C271.12 330.837 271.155 330.813 271.183 330.784C271.212 330.754 271.233 330.718 271.246 330.679C271.259 330.64 271.262 330.598 271.257 330.558C271.263 330.516 271.26 330.474 271.247 330.434C271.235 330.395 271.214 330.358 271.185 330.327C271.157 330.297 271.122 330.273 271.082 330.257C271.043 330.242 271.001 330.235 270.959 330.237Z" fill="white"/>
</g>
<g clip-path="url(#clip3_41_3430)">
<path d="M371.679 292.415L344.982 284.046C344.116 283.774 343.192 284.253 342.919 285.115L340.172 293.791C339.899 294.654 340.38 295.573 341.247 295.844L367.943 304.213C368.81 304.485 369.733 304.006 370.006 303.144L372.753 294.468C373.026 293.606 372.545 292.687 371.679 292.415Z" fill="#8CB3FF"/>
<path d="M352.034 308.118L359.058 298.409L351.871 296.156L352.034 308.118Z" fill="#8CB3FF"/>
<path d="M350.211 289.139L345.555 293.383L351.582 295.272L350.211 289.139Z" fill="white"/>
<path d="M362.812 298.793L367.468 294.55L361.447 292.662L362.812 298.793Z" fill="white"/>
<path d="M355.802 296.216C357.052 296.608 358.384 295.917 358.778 294.674C359.171 293.431 358.477 292.105 357.228 291.713C355.978 291.321 354.646 292.012 354.252 293.255C353.859 294.499 354.552 295.824 355.802 296.216Z" fill="white"/>
</g>
<g clip-path="url(#clip4_41_3430)">
<path d="M330.02 306.293L325.354 305.942L328.21 303.794L330.02 306.293Z" fill="#8CB3FF"/>
<path d="M313.371 315.39L327.305 304.911C329.437 303.308 329.861 300.291 328.253 298.174L326.895 296.386C325.287 294.268 322.254 293.851 320.122 295.455L306.189 305.933C304.057 307.536 303.632 310.553 305.241 312.671L306.599 314.458C308.207 316.576 311.239 316.993 313.371 315.39Z" fill="#8CB3FF"/>
<path d="M320.274 304.081C320.738 303.732 320.83 303.076 320.48 302.615C320.13 302.154 319.47 302.063 319.007 302.412C318.543 302.761 318.45 303.418 318.8 303.878C319.15 304.339 319.81 304.43 320.274 304.081Z" fill="white"/>
<path d="M317.38 306.257C317.844 305.908 317.937 305.252 317.587 304.791C317.237 304.33 316.577 304.239 316.113 304.588C315.649 304.937 315.557 305.593 315.907 306.054C316.257 306.515 316.917 306.606 317.38 306.257Z" fill="white"/>
<path d="M314.487 308.433C314.951 308.084 315.043 307.427 314.693 306.966C314.343 306.506 313.683 306.415 313.219 306.764C312.755 307.113 312.663 307.769 313.013 308.23C313.363 308.691 314.023 308.782 314.487 308.433Z" fill="white"/>
</g>
<path d="M61.049 162.632H348.317" stroke="black" stroke-miterlimit="10"/>
<path d="M100.419 195.59H85.7571V326.884H100.419V195.59Z" fill="#CCDEFF"/>
<path d="M118.883 177.22H104.22V326.884H118.883V177.22Z" fill="#CCDEFF"/>
<path d="M137.346 269.072H123.227V326.884H137.346V269.072Z" fill="#CCDEFF"/>
<path d="M155.809 297.708H141.147V326.884H155.809V297.708Z" fill="#CCDEFF"/>
<path d="M174.816 247.459H160.154V326.884H174.816V247.459Z" fill="#CCDEFF"/>
<path d="M193.279 229.089H178.617V326.884H193.279V229.089Z" fill="#CCDEFF"/>
<path d="M211.199 239.355H197.08V326.884H211.199V239.355Z" fill="#CCDEFF"/>
<path d="M230.206 255.564H215.544V326.885H230.206V255.564Z" fill="#CCDEFF"/>
<path d="M248.669 247.459H234.007V326.884H248.669V247.459Z" fill="#CCDEFF"/>
<path d="M277.173 191.808H330.391" stroke="black" stroke-miterlimit="10"/>
<path d="M277.173 198.832H330.391" stroke="black" stroke-miterlimit="10"/>
<path d="M277.173 205.856H330.391" stroke="black" stroke-miterlimit="10"/>
<path d="M277.173 212.88H330.391" stroke="black" stroke-miterlimit="10"/>
<path d="M67.2938 160.2C68.6434 160.2 69.7374 159.112 69.7374 157.769C69.7374 156.426 68.6434 155.337 67.2938 155.337C65.9442 155.337 64.8501 156.426 64.8501 157.769C64.8501 159.112 65.9442 160.2 67.2938 160.2Z" fill="#8CB3FF"/>
<path d="M75.7109 160.2C77.0605 160.2 78.1546 159.112 78.1546 157.769C78.1546 156.426 77.0605 155.337 75.7109 155.337C74.3613 155.337 73.2672 156.426 73.2672 157.769C73.2672 159.112 74.3613 160.2 75.7109 160.2Z" fill="#CCDEFF"/>
<g clip-path="url(#clip5_41_3430)">
<path d="M51.3446 318.093V317.504L49.9207 315.737L46.6577 311.76L43.1573 307.553C43.1573 307.553 39.7874 305.238 38.9212 304.838C35.7649 303.388 32.6561 302.281 28.9421 302.281C26.658 302.281 18.1206 302.622 18.1028 304.048C18.1028 306.163 30.0575 314.169 38.8263 318.058C42.647 318.093 51.3446 318.093 51.3446 318.093Z" fill="#000099"/>
<path d="M49.5349 318.093C37.3666 308.814 12.5316 258.09 18.8976 239.296C32.4601 246.16 47.3397 269.825 54.3583 289.809C54.7298 291.109 55.0269 292.428 55.2482 293.762L58.096 306.723L58.8079 318.093H49.5349Z" fill="#8CB3FF"/>
<path d="M57.8411 318.093C53.7355 314.782 52.4243 304.979 52.3887 301.32C52.3235 294.492 53.3795 289.461 59.259 281.949C65.1385 274.438 63.5544 261.972 71.3858 253.571C79.2172 245.17 84.3669 242.831 93.634 242.831C102.901 242.831 105.838 257.748 105.814 261.501C105.707 276.63 96.1021 278.768 90.2523 285.997C85.9984 291.24 85.6662 295.529 84.3788 297.98C77.461 311.17 71.8604 316.155 67.7074 318.093" fill="#80DAC3"/>
<path d="M60.0837 316.997C60.2024 291.175 87.6063 252.393 93.462 246.578" stroke="white" stroke-width="0.4" stroke-linecap="round" stroke-linejoin="round"/>
<path d="M61.5847 305.279C58.5531 301.998 55.7943 292.695 56.2096 290.28" stroke="white" stroke-width="0.4" stroke-linecap="round" stroke-linejoin="round"/>
<path d="M53.8187 315.883C49.5233 308.307 29.1439 271.451 21.5201 244.298" stroke="white" stroke-width="0.4" stroke-linecap="round" stroke-linejoin="round"/>
<path d="M67.7074 318.093H80.4631L69.7839 357.595H41.229L30.7219 318.093H67.7074Z" fill="#000099"/>
<path d="M22.2499 304.855C28.4735 305.279 36.3048 305.562 41.858 309.303" stroke="white" stroke-width="0.4" stroke-linecap="round" stroke-linejoin="round"/>
</g>
<path d="M84.128 160.2C85.4776 160.2 86.5717 159.112 86.5717 157.769C86.5717 156.426 85.4776 155.337 84.128 155.337C82.7784 155.337 81.6843 156.426 81.6843 157.769C81.6843 159.112 82.7784 160.2 84.128 160.2Z" fill="#80DAC3"/>
<path d="M302.43 222.065H276.907V232.331H302.43V222.065Z" fill="#80DAC3"/>
<path d="M330.125 222.065H304.602V232.331H330.125V222.065Z" fill="#80DAC3"/>
<g clip-path="url(#clip6_41_3430)">
<path d="M216.733 180.167H205.776C203.635 180.167 201.9 181.893 201.9 184.024V194.927C201.9 197.057 203.635 198.784 205.776 198.784H216.733C218.874 198.784 220.61 197.057 220.61 194.927V184.024C220.61 181.893 218.874 180.167 216.733 180.167Z" fill="#8CB3FF"/>
<path d="M219.585 185.194C221.81 185.194 223.614 183.4 223.614 181.186C223.614 178.972 221.81 177.177 219.585 177.177C217.36 177.177 215.557 178.972 215.557 181.186C215.557 183.4 217.36 185.194 219.585 185.194Z" fill="#FF7676"/>
<path d="M220.786 181.897C220.786 182.504 220.253 182.921 219.502 182.921C219.016 182.921 218.638 182.741 218.385 182.375L218.892 181.948C219.057 182.128 219.228 182.236 219.465 182.236C219.791 182.236 219.998 182.066 219.998 181.825C219.998 181.577 219.786 181.397 219.465 181.397H219.156V180.835H219.291C219.668 180.835 219.87 180.64 219.849 180.424C219.834 180.254 219.673 180.145 219.451 180.145C219.244 180.145 219.016 180.243 218.887 180.403L218.494 179.914C218.757 179.646 219.099 179.45 219.554 179.45C220.155 179.45 220.647 179.811 220.631 180.393C220.631 180.665 220.46 180.909 220.175 181.052C220.548 181.191 220.786 181.5 220.786 181.897Z" fill="white"/>
</g>
<g clip-path="url(#clip7_41_3430)">
<path d="M367.937 239.817H345.354C344.377 239.817 343.586 240.614 343.586 241.598V255.342C343.586 256.325 344.377 257.122 345.354 257.122H367.937C368.914 257.122 369.706 256.325 369.706 255.342V241.598C369.706 240.614 368.914 239.817 367.937 239.817Z" fill="#CCDEFF"/>
<path d="M344.406 240.362L356.646 248.47" stroke="#8CB3FF" stroke-width="0.82" stroke-linecap="round" stroke-linejoin="round"/>
<path d="M369.706 239.817L356.646 248.47" stroke="#8CB3FF" stroke-width="0.82" stroke-linecap="round" stroke-linejoin="round"/>
<path d="M369.706 243.58C371.77 243.58 373.443 241.895 373.443 239.818C373.443 237.74 371.77 236.056 369.706 236.056C367.642 236.056 365.969 237.74 365.969 239.818C365.969 241.895 367.642 243.58 369.706 243.58Z" fill="#FF7676"/>
<path d="M370.518 241.358H370.037V238.167L369.071 238.522V238.087L370.443 237.572H370.518V241.358Z" fill="white"/>
</g>
<ellipse cx="342.771" cy="175.286" rx="5.15715" ry="5.13165" fill="#FF7676"/>
<ellipse cx="350.643" cy="133.963" rx="2.71428" ry="2.70087" fill="#FF7676"/>
<ellipse cx="141.643" cy="148.547" rx="4.34286" ry="4.32138" fill="#FF7676"/>
<ellipse cx="224.157" cy="381.902" rx="4.34285" ry="4.32138" fill="#FF7676"/>
<ellipse cx="430.443" cy="261.443" rx="4.34285" ry="4.32138" fill="#FF7676"/>
<ellipse cx="433.157" cy="249.56" rx="2.71429" ry="2.70087" fill="#FF7676"/>
<ellipse cx="148.429" cy="140.175" rx="3.52857" ry="3.51112" fill="#FF7676"/>
<defs>
<clipPath id="clip0_41_3430">
<rect width="94.4571" height="163.672" fill="white" transform="translate(300.7 65.3608)"/>
</clipPath>
<clipPath id="clip1_41_3430">
<rect width="27.1409" height="14.0455" fill="white" transform="matrix(0.992711 -0.120515 0.121698 0.992567 315.191 269.036)"/>
</clipPath>
<clipPath id="clip2_41_3430">
<rect width="128.657" height="19.4462" fill="white" transform="translate(173.671 326.264)"/>
</clipPath>
<clipPath id="clip3_41_3430">
<rect width="31.2655" height="20.86" fill="white" transform="matrix(0.954211 0.299134 -0.301845 0.953357 343.414 283.554)"/>
</clipPath>
<clipPath id="clip4_41_3430">
<rect width="27.0942" height="14.6111" fill="white" transform="matrix(0.799222 -0.601036 0.604841 0.796347 302.328 308.836)"/>
</clipPath>
<clipPath id="clip5_41_3430">
<rect width="87.9429" height="118.298" fill="white" transform="translate(17.8713 239.296)"/>
</clipPath>
<clipPath id="clip6_41_3430">
<rect width="21.7143" height="21.6069" fill="white" transform="translate(201.9 177.177)"/>
</clipPath>
<clipPath id="clip7_41_3430">
<rect width="29.8571" height="21.0668" fill="white" transform="translate(343.586 236.056)"/>
</clipPath>
</defs>
</svg>
