<svg width="548" height="543" fill="none" xmlns="http://www.w3.org/2000/svg"><g clip-path="url(#clip0_41_2647)"><path d="M178.428 263.15c-.788 2.377-8.436 13.505-11.305 18.427-2.869 4.921-7.684 19.4-3.46 21.776 4.224 2.377 11.305.637 13.546-6.986 2.241-7.622 9.852-24.802 12.512-28.568 2.66-3.766-11.293-4.649-11.293-4.649zM465.526 36.996C469.232 33.282 499.244 0 499.539 0c2.796.714 4.631 2.143 2.599 5.194-.788 1.182-5.542 6.727-11.084 12.986 1.657 1.473 2.845 3.447 3.402 5.656a11.722 11.722 0 01-.289 6.69c-.745 2.147-2.098 4-3.875 5.308a10.193 10.193 0 01-6.06 2.006c-.86-.01-1.716-.127-2.549-.351l-4.766 5.96-7.081-3.038.948-1.104-5.258-2.311z" fill="#F8CDBA"/><path d="M418.828 422.313c-.087 1.662-2.919 15.31-1.663 17.024 2.278 3.116 21.97 2.857 22.943 1.935.973-.922 1.625-2.922.837-3.545-.788-.624-8.522-2.74-9.532-3.571-1.009-.831-2.278-5.026-1.613-7.207M282.354 226.453c-8.621 6.389-94.825 275.097-93.421 279.356 1.404 4.26 11.231 6.623 14.778 4.26 3.546-2.364 70.503-130.231 74.099-134.023 3.595-3.792 56.143-61.551 63.323-84.289 7.179-22.737-58.779-65.304-58.779-65.304z" fill="#009"/><path d="M294.361 211.182c-5.456 3.013-21.305 19.479-21.305 36.996 0 49.487 43.102 59.473 58.471 59.188 15.369-.286 78.877 2.506 102.916-6.026-1.035 9.597-9.101 96.184-16.638 121.401 1.823 3.558 11.306 6.701 13.005 5.195 13.645-11.687 53.902-135.153 53.127-143.827-1.749-19.582-179.589-70.381-189.576-72.927z" fill="#0C9"/><path d="M346.699 125.102c.776 3.558-17.77 8.375-18.62 4.545l-5.246-23.868 18.62-4.493 5.246 23.816z" fill="#F8CDBA"/><path d="M325.973 120.038c-.468-2.13 2.525-10.571 6.342-10.194-4.729-.571-8.128-5.597-9.482-4.064l3.14 14.258z" fill="#009"/><path d="M336.564 110.221c-13.712 0-24.827-11.721-24.827-26.18 0-14.457 11.115-26.178 24.827-26.178 13.711 0 24.827 11.72 24.827 26.179 0 14.458-11.116 26.179-24.827 26.179z" fill="#F8CDBA"/><path d="M357.737 82.473c-.269-1.223 1.318-2.655 3.544-3.199s4.249.006 4.518 1.228c.268 1.223-1.319 2.655-3.545 3.2-2.226.544-4.249-.006-4.517-1.23zm-25.355 6.193c-.269-1.223 1.318-2.655 3.545-3.2 2.226-.543 4.248.007 4.517 1.23.269 1.222-1.318 2.654-3.544 3.198s-4.249-.006-4.518-1.228z" fill="#FA9E9F"/><path d="M350.911 79.302c1.01.948 5.923 4.766 2.266 7.7m-6.909 7.558c-1.231.247-3.436-.844-4.741-2.026" stroke="#009" stroke-width=".69" stroke-miterlimit="10" stroke-linecap="round"/><path d="M324.434 80.133c-.062-5.908 19.58-19.543 29.038-15.297-4.374-4.243-10.048-6.691-15.989-6.898-5.942-.207-11.756 1.84-16.387 5.77-4.631 3.93-7.77 9.483-8.848 15.647-1.078 6.164-.023 12.532 2.974 17.945 2.66-2.506 9.212-11.596 9.212-17.167z" fill="#009"/><path d="M319.286 92.651c-3.02 0-5.468-2.581-5.468-5.765 0-3.185 2.448-5.766 5.468-5.766s5.468 2.581 5.468 5.766c0 3.184-2.448 5.765-5.468 5.765z" fill="#F8CDBA"/><path d="M467.521 35.06c-2.636 2.442-54.925 56.955-63.755 59.214-29.752 7.61-126.03 38.009-158.862 65.837-34.285 22.257-70.688 100.676-69.37 103.455 1.318 2.779 15.862 9.401 18.83 8.012 2.967-1.39 43.607-60.707 49.887-64.486 6.281-3.779 55.159-29.217 55.159-29.217-2.303 5.921-8.916 31.009-7.919 34.489.998 3.48 22.29 18.582 61.107 22.296 3.965-2.441 15.529-73.147 15.529-73.147 8.263-3.896 62.942-34.58 74.986-50.513 4.667-6.181 39.974-63.395 39.974-66.226 0-2.831-15.566-9.713-15.566-9.713z" fill="#80DAC3"/><path d="M342.303 175.122c3.436-1.481 25.615-13.674 25.615-13.674m-45.738-39.631c-2.34 2.999-18.916 39.203-22.77 56.499" stroke="#009" stroke-width=".55" stroke-miterlimit="10" stroke-linecap="round"/><path d="M190.792 505.55c-1.342 1.298-4.593 7.051-4.753 9.193-.801 10.259 9.728 26.244 11.428 26.257 4.926 0 7.475-2.753 7.475-5.973 0-3.221-3.694-7.155-3.694-9.311 0-2.155.455-15.037.8-16.946" fill="#009"/></g><path d="M0 541h266l12-98h268V317" stroke="#009" stroke-width="4" stroke-linecap="round" stroke-linejoin="round"/><defs><clipPath id="clip0_41_2647"><path fill="#fff" transform="matrix(-1 0 0 1 503 0)" d="M0 0h341v541H0z"/></clipPath></defs></svg>