<svg width="1440" height="678" fill="none" xmlns="http://www.w3.org/2000/svg"><path d="M1269 130C1262.11 481.909 869 546 0 565v113h247c884 0 1078.66-128.617 1044.67-534.803L1327 164l11.64-148L1233 114l36 16z" fill="#F5F9FF"/><g clip-path="url(#clip0_41_2133)"><path d="M1168.24 134l-7.76-6.757h7.92l-.16 6.757z" fill="#8CB3FF"/><path d="M1126.7 128.008h38.6c5.91 0 10.7-4.722 10.7-10.546v-4.916c0-5.824-4.79-10.546-10.7-10.546h-38.6c-5.91 0-10.7 4.722-10.7 10.546v4.916c0 5.824 4.79 10.546 10.7 10.546z" fill="#8CB3FF"/><path d="M1154.02 117.299c1.28 0 2.32-1.028 2.32-2.295s-1.04-2.295-2.32-2.295c-1.29 0-2.33 1.028-2.33 2.295s1.04 2.295 2.33 2.295zm-8.02 0c1.29 0 2.33-1.028 2.33-2.295s-1.04-2.295-2.33-2.295-2.33 1.028-2.33 2.295 1.04 2.295 2.33 2.295zm-8.02 0c1.29 0 2.33-1.028 2.33-2.295s-1.04-2.295-2.33-2.295c-1.28 0-2.32 1.028-2.32 2.295s1.04 2.295 2.32 2.295z" fill="#fff"/></g><g clip-path="url(#clip1_41_2133)"><path d="M1340.98 352.819l-26.96 5.44a2.154 2.154 0 00-1.68 2.552l3.31 16.414a2.156 2.156 0 002.54 1.7l26.96-5.44a2.162 2.162 0 001.68-2.552l-3.31-16.414c-.24-1.174-1.38-1.935-2.54-1.7z" fill="#CCDEFF"/><path d="M1313.02 359.137l16.56 6.735m13.51-13.479l-13.51 13.479" stroke="#8CB3FF" stroke-width=".82" stroke-linecap="round" stroke-linejoin="round"/><path d="M1343.99 356.886c2.47-.498 4.06-2.912 3.56-5.393-.5-2.482-2.91-4.09-5.37-3.593-2.46.497-4.05 2.912-3.55 5.393s2.9 4.09 5.36 3.593z" fill="#FF7676"/><path d="M1344.9 354.868l-.65.131-.87-4.308-1.2.741-.12-.587 1.71-1.069.1-.02 1.03 5.112z" fill="#fff"/></g><path d="M1181.97 187h-87.94c-2.78 0-5.03 2.271-5.03 5.072v43.662c0 2.801 2.25 5.072 5.03 5.072h87.94c2.78 0 5.03-2.271 5.03-5.072v-43.662c0-2.801-2.25-5.072-5.03-5.072z" fill="#8CB3FF"/><path d="M1145.7 187h-51.66a5.018 5.018 0 00-3.56 1.49 5.07 5.07 0 00-1.48 3.586v43.654c0 1.345.53 2.634 1.48 3.586a5.018 5.018 0 003.56 1.49h51.66V187z" fill="#CCDEFF"/><path d="M1186.96 191.423a5.143 5.143 0 00-1.67-3.157 5.04 5.04 0 00-3.33-1.266h-87.92a4.996 4.996 0 00-3.32 1.266 5.106 5.106 0 00-1.68 3.157h97.92z" fill="#0C9"/><path d="M1100.15 239.428V249l13.66-9.572h-13.66z" fill="#CCDEFF"/><path d="M1097.85 209.552h39m-39 6.526h39m-39 6.527h39m-39 6.526h39" stroke="#fff" stroke-width="4" stroke-miterlimit="10" stroke-linecap="round"/><path d="M1133.9 204.476c2.18 0 3.96-1.786 3.96-3.988 0-2.203-1.78-3.989-3.96-3.989-2.19 0-3.96 1.786-3.96 3.989 0 2.202 1.77 3.988 3.96 3.988z" fill="#fff"/><g clip-path="url(#clip2_41_2133)"><path d="M1050.7 349.538l-15.9-4.825-10.51 34.654 15.9 4.825 10.51-34.654zm19.83 217.364c.73 1.489 4.65 10.465 6.65 11.314 3.62 1.521 21.53-8.887 21.97-10.179.44-1.292.07-3.382-.97-3.517-1.04-.135-9.15 2.019-10.49 1.818-1.33-.201-4.54-3.182-5-5.415M834.868 438.639c2.634 60.71 22.502 72.621 41.715 71.788 48.67-2.112 110.294-43.893 113.804-45.555-.847 6.434-.918 168.613-.877 169.547 1.743 1.242 14.72 1.816 19.02.492.96-3.984 26.79-197.997 26.57-203.067-.22-5.071-3.5-12.655-14.69-13.285-4.73-.268-70.38-.145-70.38-.145" fill="#009"/><path d="M998.187 388.424c15.693 20.721 88.073 166.971 87.643 170.482-.44 3.511-15.27 11.554-18.56 9.704-13.96-7.786-103.517-144.901-106.858-146.884-3.341-1.984-8.174-.952-11.049-.242-8.088-12.208 8.153-27.826 48.824-33.06z" fill="#0C9"/><path d="M926.911 271.625c22.013-.955 29.247 19.614 31.41 27.405 6.914 24.874-5.155 121.061-6.918 123.774-14.965 22.962-105.944 28.892-115.244 19.631-9.3-9.26 30.604-168.2 90.752-170.81z" fill="#80DAC3"/><path d="M993.67 631.918c-.222 1.643-2.011 11.283-.828 13.102 2.125 3.287 22.808 4.721 23.898 3.896 1.09-.824 1.94-2.765 1.17-3.43s-8.71-3.452-9.71-4.377c-.99-.925-1.98-5.185-1.09-7.296" fill="#009"/><path d="M923.808 276.164c-.513 1.937 15.234 6.097 15.748 4.171l5.187-19.598-15.737-4.172-5.198 19.599z" fill="#F8CDBA"/><path d="M938.78 265.58c-1.538-.407-12.512 1.342-13.151 3.758l3.377-12.773c2.45.648 9.774 9.015 9.774 9.015z" fill="#009"/><path d="M947.583 268.306c12.598-.546 22.368-11.202 21.821-23.801-.546-12.598-11.202-22.368-23.801-21.821-12.598.547-22.368 11.203-21.821 23.801.546 12.598 11.203 22.368 23.801 21.821z" fill="#F8CDBA"/><path d="M969.867 256.525c.295-1.112-1.2-2.472-3.339-3.039-2.138-.567-4.111-.125-4.405.986-.295 1.111 1.2 2.472 3.339 3.039 2.138.567 4.111.125 4.405-.986zm-24.309-6.439c.294-1.111-1.201-2.472-3.339-3.038-2.139-.567-4.112-.126-4.406.985-.295 1.112 1.2 2.472 3.339 3.039 2.138.567 4.111.126 4.406-.986z" fill="#FA9E9F"/><path d="M957.675 248.833c.447 1.219 3.021 6.537-1.352 7.256m-9.152 2.988c-1.141-.345-2.574-2.22-3.171-3.782" stroke="#009" stroke-width="1.2" stroke-miterlimit="10" stroke-linecap="round"/><path d="M952.198 215.268c-6.048-.492-23.733-4.929-27.858-8.366-1.835 1.071-8.847 7.942-14.409 17.071l8.811 8.121-10.883-4.461a43.683 43.683 0 00-5.049 15.256c3.077 7.312 11.856 9.995 13.494 10.127 10.57.87 13.897-15.64 19.105-17.894 8.844-3.842 19.823 4.659 33.121 3.519 2.695-6.165-1.852-22.188-16.332-23.373z" fill="#009"/><path d="M925.747 247.898a5.279 5.279 0 00-.458-10.546 5.279 5.279 0 00.458 10.546z" fill="#F8CDBA"/><path d="M906.42 326.085c-.819 7.086-1.578 73.699 7.427 79.785 19.285 13.029 104.833-7.646 117.703-13.059 1.22-4.693-.84-19.348-.84-19.348-5.05.016-68.615 2.166-72.612-2.482-3.998-4.647-6.154-43.966-5.74-48.433" fill="#80DAC3"/><path d="M1040.41 393.97c6.75-.293 11.98-6.002 11.69-12.751-.29-6.749-6-11.983-12.75-11.69-6.75.292-11.99 6.001-11.69 12.751.29 6.749 6 11.983 12.75 11.69z" fill="#F8CDBA"/><path d="M958.088 371.016c-4.044-4.68-6.154-43.966-5.74-48.433m1.413 86.557c-17.564 1.742-32.997 1.431-39.914-3.27-3.945-2.656-6.016-16.905-7.05-32.685" stroke="#009" stroke-linecap="round" stroke-linejoin="round"/></g><path d="M1334.9 529h-36.8c-6.68 0-12.1 5.397-12.1 12.055v17.89c0 6.658 5.42 12.055 12.1 12.055h36.8c6.68 0 12.1-5.397 12.1-12.055v-17.89c0-6.658-5.42-12.055-12.1-12.055z" fill="#CCDEFF"/><path d="M1307.8 535.761h-9.18v28.478h9.18v-28.478zm13.29 18.935h-9.17v9.543h9.17v-9.543zm13.29-8.026h-9.18v17.569h9.18V546.67z" fill="#8CB3FF"/><g clip-path="url(#clip3_41_2133)"><path d="M1036.51 112.23l-34.94 4.063c-5.837.679-10.017 5.986-9.334 11.855l.883 7.591c.682 5.868 5.969 10.075 11.811 9.396l34.93-4.063c5.84-.679 10.02-5.987 9.34-11.856l-.88-7.59c-.68-5.869-5.97-10.076-11.81-9.396z" fill="#8CB3FF"/><path d="M1005.55 126.406l6.47 5.152-4.25 5.4-6.47-5.151a3.41 3.41 0 01-1.28-2.305c-.108-.908.15-1.82.71-2.536a3.434 3.434 0 012.3-1.283c.9-.105 1.81.155 2.52.723z" fill="#FF7676"/><path d="M1012.9 130.458l-5.12 6.499-5.38-4.28 5.12-6.5a3.42 3.42 0 014.82-.56 3.49 3.49 0 011.28 2.305 3.5 3.5 0 01-.72 2.536z" fill="#FF7676"/><path d="M1017.89 125.269l1.87-.217.77 6.614 3.01-.351.19 1.642-4.88.568-.96-8.256zm6.06-.705l1.88-.218.96 8.257-1.88.218-.96-8.257zm8.9 7.332l-2.61-2.392.31 2.66-1.87.217-.96-8.257 1.87-.217.3 2.529 1.49-2.736 2.34-.272-2.63 4.447 4.33 3.723-2.57.298zm8.46-2.647l.19 1.642-5.38.625-.96-8.257 5.27-.613.19 1.642-3.4.395.2 1.701 2.98-.346.2 1.69-2.98.346.18 1.582 3.51-.407z" fill="#fff"/></g><g clip-path="url(#clip4_41_2133)"><path d="M1295.41 436.916l-18.97-5.698a7.012 7.012 0 00-8.73 4.696l-5.69 18.972a6.996 6.996 0 004.69 8.727l18.97 5.698a7.007 7.007 0 008.73-4.696l5.7-18.972a7.01 7.01 0 00-4.7-8.727z" fill="#8CB3FF"/><path d="M1297.72 447.148c3.86 1.157 7.92-1.028 9.07-4.88a7.275 7.275 0 00-4.88-9.071 7.285 7.285 0 00-9.07 4.881c-1.15 3.852 1.03 7.913 4.88 9.07z" fill="#FF7676"/><path d="M1301.53 442.034c-.32 1.057-1.46 1.506-2.76 1.115-.84-.252-1.4-.763-1.65-1.531l1.1-.48c.19.4.43.677.84.8.57.17 1.01-.018 1.14-.439.13-.431-.14-.855-.7-1.021l-.54-.161.3-.977.23.07c.66.196 1.11-.04 1.18-.426.07-.304-.16-.576-.54-.692-.36-.107-.8-.056-1.11.155l-.43-1.056c.6-.329 1.29-.492 2.08-.255 1.04.313 1.71 1.196 1.37 2.2-.14.473-.56.81-1.13.91.57.436.82 1.098.62 1.788z" fill="#fff"/></g><path d="M1088 53.963l-8.95-21.619a1.2 1.2 0 00-1.48-.707l-3.45 1.129-.75-2.377c-.6-1.911-1.88-3.469-3.59-4.387a7.124 7.124 0 00-5.54-.488c-3.8 1.244-5.89 5.456-4.65 9.388l.74 2.377-3.44 1.128c-.6.195-.95.825-.81 1.456l5.03 22.897a5.034 5.034 0 002.33 3.25c1.17.7 2.59.858 3.88.436l17.72-5.803a4.844 4.844 0 002.91-2.655 5.16 5.16 0 00.05-4.025zm-16.18-20.445l-9.19 3.008-.75-2.377c-.82-2.621.57-5.428 3.11-6.258a4.733 4.733 0 013.69.321c1.14.613 2 1.652 2.4 2.929l.74 2.377z" fill="#8CB3FF"/><path d="M1082.46 27.752c2.73-.76 4.33-3.631 3.57-6.415-.76-2.784-3.59-4.425-6.32-3.665-2.74.759-4.34 3.631-3.58 6.415.76 2.783 3.6 4.424 6.33 3.665z" fill="#FF7676"/><path d="M1082.74 24.529l-.64.177-1.16-4.24-1.15.828-.16-.578 1.64-1.19.1-.027 1.37 5.03z" fill="#fff"/><defs><clipPath id="clip0_41_2133"><path fill="#fff" transform="translate(1116 102)" d="M0 0h60v32H0z"/></clipPath><clipPath id="clip1_41_2133"><path fill="#fff" transform="rotate(-11.409 2428.395 -6385.068)" d="M0 0h36.36v25.666H0z"/></clipPath><clipPath id="clip2_41_2133"><path fill="#fff" transform="rotate(-2.484 5282.754 -18917.744)" d="M0 0h258.666v445.716H0z"/></clipPath><clipPath id="clip3_41_2133"><path fill="#fff" transform="rotate(-6.634 1509.438 -8491.239)" d="M0 0h56.46v29.037H0z"/></clipPath><clipPath id="clip4_41_2133"><path fill="#fff" transform="rotate(16.717 -807.247 4538.26)" d="M0 0h39.257v39.257H0z"/></clipPath></defs></svg>