<svg width="50" height="50" viewBox="0 0 50 50" fill="none" xmlns="http://www.w3.org/2000/svg">
<g clip-path="url(#clip0_41_2906)">
<path d="M42.5782 26.5625C42.0067 26.5625 41.4604 26.6722 40.9592 26.8715C40.4504 25.0073 38.7421 23.6328 36.7188 23.6328C35.5943 23.6328 34.5672 24.0573 33.7892 24.7545C33.0111 24.0573 31.984 23.6328 30.8595 23.6328C30.3461 23.6328 29.8529 23.7213 29.3946 23.8838V19.2383C29.3946 16.8151 27.4232 14.8438 25.0001 14.8438C22.577 14.8438 20.6056 16.8151 20.6056 19.2383V33.5317L19.9247 32.8509C18.2074 31.1337 15.4278 31.1333 13.7104 32.8509C11.993 34.5683 11.9928 37.3478 13.7104 39.0652L24.216 49.5709C24.4907 49.8456 24.8633 50 25.2518 50H42.5782C43.1839 50 43.7271 49.6272 43.945 49.062C45.9541 43.8508 46.9728 38.3767 46.9728 32.7918V30.957C46.9728 28.5339 45.0015 26.5625 42.5782 26.5625ZM44.0432 32.7918C44.0431 37.6808 43.2082 42.4794 41.5605 47.0703H25.8586L15.782 36.9937C15.2097 36.4214 15.2096 35.495 15.782 34.9226C16.3545 34.3502 17.2807 34.3502 17.8532 34.9226L21.0351 38.1044C21.4541 38.5232 22.0844 38.6482 22.6313 38.4215C23.1786 38.1947 23.5354 37.6606 23.5354 37.0683V19.2383C23.5354 18.4306 24.1925 17.7734 25.0002 17.7734C25.8079 17.7734 26.465 18.4306 26.465 19.2383V30.957C26.465 31.766 27.1209 32.4219 27.9299 32.4219C28.7389 32.4219 29.3947 31.766 29.3947 30.957V28.0273C29.3947 27.2196 30.0519 26.5625 30.8596 26.5625C31.6673 26.5625 32.3244 27.2196 32.3244 28.0273V30.957C32.3244 31.766 32.9803 32.4219 33.7893 32.4219C34.5982 32.4219 35.2541 31.766 35.2541 30.957V28.0273C35.2541 27.2196 35.9112 26.5625 36.7189 26.5625C37.5267 26.5625 38.1838 27.2196 38.1838 28.0273V30.957C38.1838 31.766 38.8397 32.4219 39.6486 32.4219C40.4576 32.4219 41.1135 31.766 41.1135 30.957C41.1135 30.1493 41.7706 29.4922 42.5783 29.4922C43.386 29.4922 44.0432 30.1493 44.0432 30.957V32.7918Z" fill="#000099"/>
<path d="M14.5785 5.17471C14.4073 4.63975 13.9453 4.2499 13.3892 4.17109L10.0973 3.704L8.63143 0.804102C8.38221 0.310937 7.87665 0 7.32411 0C6.77157 0 6.266 0.310937 6.01678 0.804102L4.55096 3.70391L1.25897 4.171C0.703013 4.2499 0.240904 4.63975 0.0697121 5.17461C-0.101577 5.70947 0.0480324 6.29522 0.454868 6.68232L2.81581 8.9293L2.26014 12.0931C2.16395 12.6407 2.38612 13.1957 2.83368 13.5256C3.28211 13.8561 3.87801 13.9031 4.37176 13.6497L7.32411 12.1344L10.2765 13.6498C10.7711 13.9037 11.367 13.8557 11.8145 13.5257C12.2621 13.1957 12.4843 12.6408 12.3881 12.0932L11.8324 8.92939L14.1933 6.68242C14.6002 6.29522 14.7498 5.70957 14.5785 5.17471ZM9.24393 7.34844C8.88866 7.68652 8.72616 8.17998 8.81102 8.66299L8.99276 9.69785L7.99305 9.18457C7.57323 8.96904 7.07508 8.96904 6.65526 9.18457L5.65545 9.69775L5.83719 8.66289C5.92206 8.17988 5.75956 7.68643 5.40428 7.34834L4.66678 6.64648L5.71922 6.49717C6.19335 6.42998 6.60467 6.13506 6.82069 5.70771L7.32411 4.71201L7.82743 5.70771C8.04344 6.13516 8.45477 6.42998 8.92889 6.49717L9.98133 6.64648L9.24393 7.34844Z" fill="#000099"/>
<path d="M32.2542 5.17471C32.0831 4.63975 31.621 4.2499 31.065 4.17109L27.773 3.704L26.3072 0.804102C26.058 0.310937 25.5524 0 24.9999 0C24.4473 0 23.9418 0.310937 23.6925 0.804004L22.2266 3.70391L18.9346 4.171C18.3787 4.2499 17.9166 4.63975 17.7454 5.17461C17.5741 5.70947 17.7237 6.29522 18.1305 6.68232L20.4916 8.92939L19.9359 12.0932C19.8397 12.6408 20.0619 13.1958 20.5094 13.5257C20.9579 13.8562 21.5538 13.9032 22.0475 13.6498L24.9999 12.1344L27.9522 13.6498C28.4469 13.9037 29.0427 13.8557 29.4903 13.5257C29.9378 13.1957 30.16 12.6408 30.0638 12.0932L29.5082 8.92939L31.8691 6.68242C32.2759 6.29522 32.4255 5.70957 32.2542 5.17471ZM26.9196 7.34834C26.5643 7.68643 26.4018 8.17988 26.4867 8.66289L26.6684 9.69775L25.6688 9.18457C25.249 8.96904 24.7508 8.96904 24.331 9.18457L23.3312 9.69775L23.5129 8.66289C23.5978 8.17988 23.4353 7.68643 23.08 7.34834L22.3425 6.64648L23.3951 6.49717C23.8692 6.42998 24.2805 6.13506 24.4965 5.70771L24.9999 4.71201L25.5032 5.70771C25.7192 6.13516 26.1305 6.42998 26.6046 6.49717L27.6571 6.64648L26.9196 7.34834Z" fill="#000099"/>
<path d="M49.93 5.17461C49.7588 4.63965 49.2968 4.2498 48.7408 4.171L45.4488 3.70391L43.983 0.804102C43.7337 0.310937 43.2282 0 42.6756 0C42.1231 0 41.6175 0.310937 41.3683 0.804004L39.9024 3.70391L36.6104 4.171C36.0545 4.2499 35.5923 4.63975 35.4212 5.17461C35.2499 5.70947 35.3995 6.29522 35.8063 6.68232L38.1672 8.9293L37.6116 12.0931C37.5154 12.6407 37.7376 13.1957 38.1851 13.5256C38.6336 13.8561 39.2295 13.9031 39.7232 13.6497L42.6756 12.1344L45.628 13.6498C46.1226 13.9037 46.7185 13.8557 47.1661 13.5257C47.6136 13.1957 47.8358 12.6408 47.7396 12.0932L47.1839 8.92939L49.5449 6.68242C49.9517 6.29522 50.1013 5.70947 49.93 5.17461ZM44.5955 7.34844C44.2402 7.68652 44.0777 8.17998 44.1626 8.66299L44.3443 9.69785L43.3446 9.18457C42.9248 8.96904 42.4266 8.96904 42.0068 9.18457L41.007 9.69775L41.1887 8.66289C41.2736 8.17988 41.1111 7.68643 40.7558 7.34834L40.0183 6.64648L41.0708 6.49717C41.5449 6.42998 41.9562 6.13506 42.1722 5.70771L42.6756 4.71201L43.179 5.70771C43.395 6.13516 43.8063 6.42998 44.2804 6.49717L45.3329 6.64648L44.5955 7.34844Z" fill="#000099"/>
</g>
<defs>
<clipPath id="clip0_41_2906">
<rect width="50" height="50" fill="white"/>
</clipPath>
</defs>
</svg>
