<svg width="50" height="50" viewBox="0 0 50 50" fill="none" xmlns="http://www.w3.org/2000/svg">
<path d="M13.2818 16.1621C13.272 16.1621 13.2621 16.1622 13.2522 16.1624H7.39287C6.58408 16.1784 5.94131 16.8471 5.95732 17.6559C5.97314 18.455 6.62578 19.0918 7.42129 19.0918C7.43115 19.0918 7.44101 19.0917 7.45088 19.0915H13.3102C14.119 19.0755 14.7618 18.4068 14.7458 17.598C14.73 16.799 14.0773 16.1621 13.2818 16.1621Z" fill="#000099"/>
<path d="M13.2818 22.0215C13.272 22.0215 13.2621 22.0216 13.2522 22.0218H7.39287C6.58408 22.0378 5.94131 22.7064 5.95732 23.5152C5.97314 24.3143 6.62578 24.9512 7.42129 24.9512C7.43115 24.9512 7.44101 24.9511 7.45088 24.9509H13.3102C14.119 24.9349 14.7618 24.2662 14.7458 23.4574C14.73 22.6584 14.0773 22.0215 13.2818 22.0215Z" fill="#000099"/>
<path d="M44.1406 13.3798V5.9082C44.1406 3.48506 42.1692 1.51367 39.7461 1.51367C37.4519 1.51367 35.5638 3.28125 35.3692 5.52588C32.4946 6.9875 25.917 10.3027 19.2661 10.3027C17.8243 10.3027 8.72647 10.3027 7.32422 10.3027C3.28564 10.3027 0 13.5884 0 17.627V23.4863C0 27.5249 3.28564 30.8105 7.32422 30.8105H8.88672V44.0918C8.88672 46.5149 10.8581 48.4863 13.2812 48.4863C15.7044 48.4863 17.6758 46.5149 17.6758 44.0918V36.6699H19.1406C21.5638 36.6699 23.5352 34.6985 23.5352 32.2754V31.2281C28.5526 32.1628 33.087 34.4326 35.3693 35.5885C35.5644 37.8326 37.4521 39.5996 39.7461 39.5996C42.1692 39.5996 44.1406 37.6282 44.1406 35.2051V27.7335C47.4797 27.0529 50 24.0938 50 20.5566C50 17.0196 47.4797 14.0604 44.1406 13.3798ZM14.7461 44.0918C14.7461 44.8995 14.089 45.5566 13.2812 45.5566C12.4735 45.5566 11.8164 44.8995 11.8164 44.0918V30.8105H14.7461C14.7461 31.4969 14.7461 43.4878 14.7461 44.0918ZM7.32422 27.8809C4.90107 27.8809 2.92969 25.9095 2.92969 23.4863V17.627C2.92969 15.2038 4.90107 13.2324 7.32422 13.2324H17.6758V27.8809H7.32422ZM20.6055 32.2754C20.6055 33.0831 19.9483 33.7402 19.1406 33.7402H17.6758V30.8105C19.1263 30.8105 19.6815 30.7953 20.6055 30.855V32.2754ZM35.3516 32.3046C32.0718 30.6983 26.4933 28.2553 20.6055 27.9197V13.1939C26.534 12.8602 32.097 10.4132 35.3516 8.8125V32.3046ZM41.2109 35.2051C41.2109 36.0128 40.5538 36.6699 39.7461 36.6699C38.9384 36.6699 38.2812 36.0128 38.2812 35.2051V5.9082C38.2812 5.10049 38.9384 4.44336 39.7461 4.44336C40.5538 4.44336 41.2109 5.10049 41.2109 5.9082C41.2109 7.00615 41.2109 34.2029 41.2109 35.2051ZM44.1406 24.7002V16.4131C45.8458 17.0177 47.0703 18.6468 47.0703 20.5566C47.0703 22.4665 45.8458 24.0956 44.1406 24.7002Z" fill="#000099"/>
</svg>
