<svg width="50" height="50" viewBox="0 0 50 50" fill="none" xmlns="http://www.w3.org/2000/svg">
<path d="M45.6055 1.5625H4.39453C1.97139 1.5625 0 3.53389 0 5.95703V35.2539C0 37.6771 1.97139 39.6484 4.39453 39.6484H8.88672V46.9727C8.88672 47.5651 9.24365 48.0993 9.79102 48.326C10.3385 48.5526 10.9685 48.4273 11.3874 48.0084L19.7474 39.6484H45.6055C48.0286 39.6484 50 37.6771 50 35.2539V5.95703C50 3.53389 48.0286 1.5625 45.6055 1.5625ZM47.0703 35.2539C47.0703 36.0616 46.4132 36.7188 45.6055 36.7188H19.1406C18.7521 36.7188 18.3796 36.8731 18.1049 37.1479L11.8164 43.4361V38.1836C11.8164 37.3746 11.1605 36.7188 10.3516 36.7188H4.39453C3.58682 36.7188 2.92969 36.0616 2.92969 35.2539V5.95703C2.92969 5.14932 3.58682 4.49219 4.39453 4.49219H45.6055C46.4132 4.49219 47.0703 5.14932 47.0703 5.95703V35.2539Z" fill="#000099"/>
<path d="M25 7.42188C17.7306 7.42188 11.8164 13.336 11.8164 20.6055C11.8164 27.8749 17.7306 33.7891 25 33.7891C32.2694 33.7891 38.1836 27.8749 38.1836 20.6055C38.1836 13.336 32.2694 7.42188 25 7.42188ZM25 30.8594C19.346 30.8594 14.7461 26.2595 14.7461 20.6055C14.7461 14.9515 19.346 10.3516 25 10.3516C30.654 10.3516 35.2539 14.9515 35.2539 20.6055C35.2539 26.2595 30.654 30.8594 25 30.8594Z" fill="#000099"/>
<path d="M30.1792 23.713C29.607 23.141 28.6795 23.1409 28.1074 23.713C27.279 24.5414 26.1753 24.9978 25.0001 24.9978C23.8248 24.9978 22.7211 24.5415 21.8927 23.713C21.3206 23.1411 20.3932 23.141 19.8211 23.713C19.2491 24.2851 19.2491 25.2125 19.8211 25.7846C21.203 27.1664 23.0422 27.9275 25.0001 27.9275C26.9581 27.9275 28.7973 27.1664 30.1792 25.7846C30.7511 25.2125 30.7511 24.2851 30.1792 23.713Z" fill="#000099"/>
<path d="M20.6055 19.1406C21.4145 19.1406 22.0703 18.4848 22.0703 17.6758C22.0703 16.8668 21.4145 16.2109 20.6055 16.2109C19.7965 16.2109 19.1406 16.8668 19.1406 17.6758C19.1406 18.4848 19.7965 19.1406 20.6055 19.1406Z" fill="#000099"/>
<path d="M29.3945 19.1406C30.2035 19.1406 30.8594 18.4848 30.8594 17.6758C30.8594 16.8668 30.2035 16.2109 29.3945 16.2109C28.5855 16.2109 27.9297 16.8668 27.9297 17.6758C27.9297 18.4848 28.5855 19.1406 29.3945 19.1406Z" fill="#000099"/>
</svg>
